<svg xmlns="http://www.w3.org/2000/svg" width="50" height="50" viewBox="0 0 512 512" version="1.1"><path d="M 161.659 115.054 L 159.048 117.107 157.921 120.869 L 156.794 124.630 157.147 134.251 L 157.500 143.872 160.458 146.957 L 163.415 150.043 167.244 150.655 L 171.073 151.267 172.072 153.134 L 173.070 155 171.937 157.118 L 170.804 159.236 165.926 158.767 L 161.049 158.298 157.146 155.715 L 153.242 153.132 151.121 148.750 L 149 144.369 149 140.053 L 149 135.737 141.511 136.218 L 134.023 136.698 129.306 139.615 L 124.588 142.531 121.794 147.880 L 119 153.228 119 173.614 L 119 194 256 194 L 393 194 393 173.614 L 393 153.228 390.206 147.880 L 387.412 142.531 382.537 139.515 L 377.662 136.500 362.186 136 L 346.711 135.500 345.610 133.750 L 344.510 132 345.606 130.250 L 346.703 128.500 350.407 128.186 L 354.112 127.873 354.692 126.361 L 355.272 124.850 354.112 120.979 L 352.952 117.107 350.341 115.054 L 347.730 113 344.269 113 L 340.809 113 337.990 114.665 L 335.170 116.331 334.085 118.712 L 333 121.094 333 132.624 L 333 144.154 335.872 147.026 L 338.744 149.898 341.622 150.508 L 344.500 151.119 346 151.917 L 347.500 152.714 347.833 154.405 L 348.165 156.096 346.871 157.655 L 345.578 159.214 340.749 158.750 L 335.921 158.286 332.211 155.335 L 328.500 152.384 326.250 147.980 L 324 143.576 324 139.788 L 324 136 291.535 136 L 259.070 136 258 134 L 256.930 132 258 130 L 259.070 128 263.165 128 L 267.260 128 266.740 123.382 L 266.219 118.765 263.587 116.132 L 260.955 113.500 256 113.500 L 251.045 113.500 248.273 116.270 L 245.500 119.040 245.209 130.770 L 244.917 142.500 246.911 145.696 L 248.904 148.891 253.202 150.121 L 257.500 151.350 258.801 152.339 L 260.101 153.329 259.801 155.914 L 259.500 158.500 255.316 158.804 L 251.133 159.108 247.124 157.063 L 243.116 155.018 240.479 151.562 L 237.843 148.105 236.693 142.053 L 235.542 136 203.894 136 L 172.245 136 171.046 134.555 L 169.846 133.110 170.173 130.805 L 170.500 128.500 174.750 128.193 L 179 127.885 179 124.490 L 179 121.094 177.805 118.472 L 176.611 115.850 173.855 114.425 L 171.099 113 167.685 113 L 164.270 113 161.659 115.054 M 119.010 292.250 L 119.020 381.500 121.402 386.617 L 123.785 391.734 127.142 394.229 L 130.500 396.724 133.899 397.862 L 137.298 399 231.559 399 L 325.819 399 326.213 379.250 L 326.606 359.500 328.857 353.798 L 331.108 348.097 335.619 343.079 L 340.130 338.061 346.790 334.781 L 353.450 331.500 373.225 331.160 L 393 330.819 393 266.910 L 393 203 256 203 L 119 203 119.010 292.250 M 151.256 220.975 L 148.012 221.745 146.440 223.050 L 144.868 224.354 143.434 227.128 L 142 229.901 142 243.982 L 142 258.064 143.421 261.466 L 144.842 264.867 147.872 266.434 L 150.901 268 165.050 268 L 179.200 268 182.600 264.600 L 186 261.200 186 244.677 L 186 228.153 183.436 225.106 L 180.871 222.059 177.186 221.035 L 173.500 220.011 164 220.108 L 154.500 220.205 151.256 220.975 M 212.762 220.659 L 210.023 221.131 207.153 224.001 L 204.283 226.871 203.652 230.686 L 203.022 234.500 203.017 245 L 203.011 255.500 204.035 259.186 L 205.059 262.871 208.106 265.436 L 211.153 268 225.591 268 L 240.029 268 243.765 264.578 L 247.500 261.156 247.850 246.884 L 248.201 232.613 247.075 228.857 L 245.950 225.100 242.774 222.839 L 239.598 220.577 227.549 220.382 L 215.500 220.187 212.762 220.659 M 273.333 221.039 L 270.166 222.014 267.519 225.160 L 264.872 228.305 265.186 245.237 L 265.500 262.169 268.766 265.084 L 272.032 268 286.065 268 L 300.099 268 303.033 266.483 L 305.966 264.966 307.483 262.033 L 309 259.099 308.996 244.300 L 308.993 229.500 307.050 226.314 L 305.107 223.128 302.804 221.870 L 300.500 220.613 288.500 220.339 L 276.500 220.064 273.333 221.039 M 335.256 220.975 L 332.012 221.745 330.351 223.122 L 328.690 224.500 327.345 227.718 L 326 230.936 326 244.567 L 326 258.198 327.635 261.643 L 329.270 265.088 332.085 266.544 L 334.901 268 349.050 268 L 363.200 268 366.600 264.600 L 370 261.200 370 244.677 L 370 228.153 367.436 225.106 L 364.871 222.059 361.186 221.035 L 357.500 220.011 348 220.108 L 338.500 220.205 335.256 220.975 M 151.667 229.667 L 151 230.333 151 244.560 L 151 258.786 152.582 259.393 L 154.164 260 164.882 260 L 175.600 260 176.800 258.800 L 178 257.600 178 244.500 L 178 231.400 176.800 230.200 L 175.600 229 163.967 229 L 152.333 229 151.667 229.667 M 213.200 230.200 L 212 231.400 212 244.500 L 212 257.600 213.200 258.800 L 214.400 260 225.500 260 L 236.600 260 237.800 258.800 L 239 257.600 239 243.907 L 239 230.214 237.418 229.607 L 235.836 229 225.118 229 L 214.400 229 213.200 230.200 M 274.051 230.904 L 273 232.869 273 244.863 L 273 256.857 274.571 258.429 L 276.143 260 286.821 259.985 L 297.500 259.969 298.779 259.158 L 300.057 258.347 299.779 243.923 L 299.500 229.500 287.301 229.220 L 275.103 228.939 274.051 230.904 M 335.667 229.667 L 335 230.333 335 243.967 L 335 257.600 336.200 258.800 L 337.400 260 348.500 260 L 359.600 260 360.800 258.800 L 362 257.600 362 244.500 L 362 231.400 360.800 230.200 L 359.600 229 347.967 229 L 336.333 229 335.667 229.667 M 150.035 277.306 L 146.569 278.500 144.285 281.898 L 142 285.296 142 299.680 L 142 314.064 143.421 317.466 L 144.842 320.867 147.872 322.434 L 150.901 324 165.050 324 L 179.200 324 182.600 320.600 L 186 317.200 186 300.677 L 186 284.153 183.436 281.106 L 180.871 278.059 177.186 277.035 L 173.500 276.011 163.500 276.062 L 153.500 276.113 150.035 277.306 M 212.762 276.667 L 210.023 277.131 207.153 280.001 L 204.283 282.871 203.652 286.686 L 203.022 290.500 203.017 301 L 203.011 311.500 204.035 315.186 L 205.059 318.871 208.106 321.436 L 211.153 324 225.591 324 L 240.029 324 243.765 320.578 L 247.500 317.157 247.838 302.257 L 248.176 287.358 246.672 283.757 L 245.167 280.156 242.379 278.328 L 239.591 276.500 227.545 276.352 L 215.500 276.203 212.762 276.667 M 273.333 277.097 L 270.166 278.014 267.583 281.084 L 265 284.153 265 299.626 L 265 315.099 266.517 318.033 L 268.034 320.966 270.967 322.483 L 273.901 324 287 324 L 300.099 324 303.033 322.483 L 305.966 320.966 307.483 318.033 L 309 315.099 309 300.198 L 309 285.296 306.715 281.898 L 304.431 278.500 300.965 277.306 L 297.500 276.113 287 276.147 L 276.500 276.180 273.333 277.097 M 334.094 277.306 L 330.687 278.500 328.594 281.319 L 326.500 284.139 326.179 299.018 L 325.857 313.897 327.445 317.243 L 329.032 320.588 331.920 322.294 L 334.809 324 349.004 324 L 363.200 324 366.600 320.600 L 370 317.200 370 300.677 L 370 284.153 367.436 281.106 L 364.871 278.059 361.186 277.035 L 357.500 276.011 347.500 276.062 L 337.500 276.113 334.094 277.306 M 151.667 285.667 L 151 286.333 151 300.560 L 151 314.786 152.582 315.393 L 154.164 316 164.148 316 L 174.131 316 176.066 314.965 L 178 313.930 178 300.665 L 178 287.400 176.800 286.200 L 175.600 285 163.967 285 L 152.333 285 151.667 285.667 M 213.200 286.200 L 212 287.400 212 300.500 L 212 313.600 213.200 314.800 L 214.400 316 225.500 316 L 236.600 316 237.800 314.800 L 239 313.600 239 299.907 L 239 286.214 237.418 285.607 L 235.836 285 225.118 285 L 214.400 285 213.200 286.200 M 274.051 286.904 L 273 288.869 273 300.863 L 273 312.857 274.571 314.429 L 276.143 316 286.821 315.985 L 297.500 315.969 298.779 315.158 L 300.057 314.347 299.779 299.923 L 299.500 285.500 287.301 285.220 L 275.103 284.939 274.051 286.904 M 335.667 285.667 L 335 286.333 335 299.967 L 335 313.600 336.200 314.800 L 337.400 316 347.766 316 L 358.131 316 360.066 314.965 L 362 313.930 362 300.665 L 362 287.400 360.800 286.200 L 359.600 285 347.967 285 L 336.333 285 335.667 285.667 M 150.035 333.306 L 146.569 334.500 144.285 337.898 L 142 341.296 142 355.747 L 142 370.198 143.635 373.643 L 145.270 377.088 148.225 378.616 L 151.180 380.145 165.675 379.822 L 180.169 379.500 183.085 376.234 L 186 372.968 186 356.619 L 186 340.270 183.832 337.514 L 181.664 334.758 178.364 333.379 L 175.064 332 164.282 332.056 L 153.500 332.113 150.035 333.306 M 212.258 332.657 L 210.017 333.137 207.150 336.004 L 204.283 338.871 203.652 342.686 L 203.022 346.500 203.017 357 L 203.011 367.500 204.035 371.186 L 205.059 374.871 208.106 377.436 L 211.153 380 225.442 380 L 239.730 380 242.486 377.832 L 245.242 375.664 246.621 372.364 L 248 369.064 248 356 L 248 342.936 246.584 339.546 L 245.167 336.156 242.379 334.328 L 239.592 332.500 227.046 332.339 L 214.500 332.178 212.258 332.657 M 272.415 333.381 L 269.330 334.765 267.165 337.517 L 265 340.270 265 355.685 L 265 371.099 266.517 374.033 L 268.034 376.966 270.967 378.483 L 273.901 380 287 380 L 300.099 380 303.033 378.483 L 305.966 376.966 307.483 374.033 L 309 371.099 308.985 356.300 L 308.971 341.500 307.735 339.096 L 306.500 336.693 303.681 334.596 L 300.861 332.500 288.181 332.249 L 275.500 331.998 272.415 333.381 M 350.199 342.588 L 345.005 345.177 341.536 349.229 L 338.067 353.281 336.506 357.982 L 334.945 362.683 335.222 377.351 L 335.500 392.019 361.493 366.009 L 387.486 340 371.439 340 L 355.393 340 350.199 342.588 M 151.667 341.667 L 151 342.333 151 355.967 L 151 369.600 152.200 370.800 L 153.400 372 163.766 372 L 174.131 372 176.066 370.965 L 178 369.930 178 356.665 L 178 343.400 176.800 342.200 L 175.600 341 163.967 341 L 152.333 341 151.667 341.667 M 213.229 342.171 L 212 343.400 212 356.665 L 212 369.930 213.934 370.965 L 215.869 372 226.312 372 L 236.755 372 237.907 370.613 L 239.058 369.225 238.779 355.363 L 238.500 341.500 226.479 341.221 L 214.458 340.942 213.229 342.171 M 274.051 342.904 L 273 344.869 273 356.863 L 273 368.857 274.571 370.429 L 276.143 372 286.821 371.985 L 297.500 371.969 298.779 371.158 L 300.057 370.347 299.779 355.923 L 299.500 341.500 287.301 341.220 L 275.103 340.939 274.051 342.904" stroke="none" fill="#f9fafa" fill-rule="evenodd"/><path d="M 232.500 16.618 L 229.500 17.046 219 18.620 L 208.500 20.194 196.574 23.192 L 184.648 26.189 172.028 30.952 L 159.407 35.715 147.093 41.993 L 134.779 48.271 124.639 54.971 L 114.500 61.670 106.500 67.997 L 98.500 74.324 88.151 84.412 L 77.801 94.500 69.722 104.500 L 61.644 114.500 54.958 124.639 L 48.271 134.779 41.993 147.093 L 35.715 159.407 30.952 172.028 L 26.189 184.648 23.192 196.574 L 20.194 208.500 18.347 219.500 L 16.500 230.500 16.500 256 L 16.500 281.500 18.338 292.500 L 20.176 303.500 23.502 316.500 L 26.827 329.500 31.377 341.253 L 35.926 353.007 42.099 365.114 L 48.271 377.221 54.958 387.361 L 61.644 397.500 69.706 407.500 L 77.768 417.500 88.134 427.552 L 98.500 437.604 106.500 443.967 L 114.500 450.330 125 457.275 L 135.500 464.220 150.500 471.550 L 165.500 478.880 175.500 482.396 L 185.500 485.911 197 488.864 L 208.500 491.817 219.500 493.658 L 230.500 495.500 256 495.500 L 281.500 495.500 292.500 493.653 L 303.500 491.806 315.426 488.808 L 327.352 485.811 339.972 481.048 L 352.593 476.285 364.907 470.007 L 377.221 463.729 387.361 457.042 L 397.500 450.356 407.500 442.278 L 417.500 434.199 427.588 423.849 L 437.676 413.500 444.003 405.500 L 450.330 397.500 457.029 387.361 L 463.729 377.221 470.007 364.907 L 476.285 352.593 481.048 339.972 L 485.811 327.352 488.808 315.426 L 491.806 303.500 493.653 292.500 L 495.500 281.500 495.500 256 L 495.500 230.500 493.662 219.500 L 491.824 208.500 488.498 195.500 L 485.173 182.500 480.623 170.747 L 476.074 158.993 469.901 146.886 L 463.729 134.779 457.029 124.639 L 450.330 114.500 444.003 106.500 L 437.676 98.500 427.588 88.151 L 417.500 77.801 407.500 69.722 L 397.500 61.644 387.361 54.958 L 377.221 48.271 365.114 42.099 L 353.007 35.926 341.472 31.468 L 329.937 27.010 318.719 24.024 L 307.500 21.037 295.500 18.885 L 283.500 16.732 259.500 16.461 L 235.500 16.190 232.500 16.618 M 161.659 115.054 L 159.048 117.107 157.921 120.869 L 156.794 124.630 157.147 134.251 L 157.500 143.872 160.458 146.957 L 163.415 150.043 167.244 150.655 L 171.073 151.267 172.072 153.134 L 173.070 155 171.937 157.118 L 170.804 159.236 165.926 158.767 L 161.049 158.298 157.146 155.715 L 153.242 153.132 151.121 148.750 L 149 144.369 149 140.053 L 149 135.737 141.511 136.218 L 134.023 136.698 129.306 139.615 L 124.588 142.531 121.794 147.880 L 119 153.228 119 173.614 L 119 194 256 194 L 393 194 393 173.614 L 393 153.228 390.206 147.880 L 387.412 142.531 382.537 139.515 L 377.662 136.500 362.186 136 L 346.711 135.500 345.610 133.750 L 344.510 132 345.606 130.250 L 346.703 128.500 350.407 128.186 L 354.112 127.873 354.692 126.361 L 355.272 124.850 354.112 120.979 L 352.952 117.107 350.341 115.054 L 347.730 113 344.269 113 L 340.809 113 337.990 114.665 L 335.170 116.331 334.085 118.712 L 333 121.094 333 132.624 L 333 144.154 335.872 147.026 L 338.744 149.898 341.622 150.508 L 344.500 151.119 346 151.917 L 347.500 152.714 347.833 154.405 L 348.165 156.096 346.871 157.655 L 345.578 159.214 340.749 158.750 L 335.921 158.286 332.211 155.335 L 328.500 152.384 326.250 147.980 L 324 143.576 324 139.788 L 324 136 291.535 136 L 259.070 136 258 134 L 256.930 132 258 130 L 259.070 128 263.165 128 L 267.260 128 266.740 123.382 L 266.219 118.765 263.587 116.132 L 260.955 113.500 256 113.500 L 251.045 113.500 248.273 116.270 L 245.500 119.040 245.209 130.770 L 244.917 142.500 246.911 145.696 L 248.904 148.891 253.202 150.121 L 257.500 151.350 258.801 152.339 L 260.101 153.329 259.801 155.914 L 259.500 158.500 255.316 158.804 L 251.133 159.108 247.124 157.063 L 243.116 155.018 240.479 151.562 L 237.843 148.105 236.693 142.053 L 235.542 136 203.894 136 L 172.245 136 171.046 134.555 L 169.846 133.110 170.173 130.805 L 170.500 128.500 174.750 128.193 L 179 127.885 179 124.490 L 179 121.094 177.805 118.472 L 176.611 115.850 173.855 114.425 L 171.099 113 167.685 113 L 164.270 113 161.659 115.054 M 119.010 292.250 L 119.020 381.500 121.402 386.617 L 123.785 391.734 127.142 394.229 L 130.500 396.724 133.899 397.862 L 137.298 399 231.559 399 L 325.819 399 326.213 379.250 L 326.606 359.500 328.857 353.798 L 331.108 348.097 335.619 343.079 L 340.130 338.061 346.790 334.781 L 353.450 331.500 373.225 331.160 L 393 330.819 393 266.910 L 393 203 256 203 L 119 203 119.010 292.250 M 151.256 220.975 L 148.012 221.745 146.440 223.050 L 144.868 224.354 143.434 227.128 L 142 229.901 142 243.982 L 142 258.064 143.421 261.466 L 144.842 264.867 147.872 266.434 L 150.901 268 165.050 268 L 179.200 268 182.600 264.600 L 186 261.200 186 244.677 L 186 228.153 183.436 225.106 L 180.871 222.059 177.186 221.035 L 173.500 220.011 164 220.108 L 154.500 220.205 151.256 220.975 M 212.762 220.659 L 210.023 221.131 207.153 224.001 L 204.283 226.871 203.652 230.686 L 203.022 234.500 203.017 245 L 203.011 255.500 204.035 259.186 L 205.059 262.871 208.106 265.436 L 211.153 268 225.591 268 L 240.029 268 243.765 264.578 L 247.500 261.156 247.850 246.884 L 248.201 232.613 247.075 228.857 L 245.950 225.100 242.774 222.839 L 239.598 220.577 227.549 220.382 L 215.500 220.187 212.762 220.659 M 273.333 221.039 L 270.166 222.014 267.519 225.160 L 264.872 228.305 265.186 245.237 L 265.500 262.169 268.766 265.084 L 272.032 268 286.065 268 L 300.099 268 303.033 266.483 L 305.966 264.966 307.483 262.033 L 309 259.099 308.996 244.300 L 308.993 229.500 307.050 226.314 L 305.107 223.128 302.804 221.870 L 300.500 220.613 288.500 220.339 L 276.500 220.064 273.333 221.039 M 335.256 220.975 L 332.012 221.745 330.351 223.122 L 328.690 224.500 327.345 227.718 L 326 230.936 326 244.567 L 326 258.198 327.635 261.643 L 329.270 265.088 332.085 266.544 L 334.901 268 349.050 268 L 363.200 268 366.600 264.600 L 370 261.200 370 244.677 L 370 228.153 367.436 225.106 L 364.871 222.059 361.186 221.035 L 357.500 220.011 348 220.108 L 338.500 220.205 335.256 220.975 M 151.667 229.667 L 151 230.333 151 244.560 L 151 258.786 152.582 259.393 L 154.164 260 164.882 260 L 175.600 260 176.800 258.800 L 178 257.600 178 244.500 L 178 231.400 176.800 230.200 L 175.600 229 163.967 229 L 152.333 229 151.667 229.667 M 213.200 230.200 L 212 231.400 212 244.500 L 212 257.600 213.200 258.800 L 214.400 260 225.500 260 L 236.600 260 237.800 258.800 L 239 257.600 239 243.907 L 239 230.214 237.418 229.607 L 235.836 229 225.118 229 L 214.400 229 213.200 230.200 M 274.051 230.904 L 273 232.869 273 244.863 L 273 256.857 274.571 258.429 L 276.143 260 286.821 259.985 L 297.500 259.969 298.779 259.158 L 300.057 258.347 299.779 243.923 L 299.500 229.500 287.301 229.220 L 275.103 228.939 274.051 230.904 M 335.667 229.667 L 335 230.333 335 243.967 L 335 257.600 336.200 258.800 L 337.400 260 348.500 260 L 359.600 260 360.800 258.800 L 362 257.600 362 244.500 L 362 231.400 360.800 230.200 L 359.600 229 347.967 229 L 336.333 229 335.667 229.667 M 150.035 277.306 L 146.569 278.500 144.285 281.898 L 142 285.296 142 299.680 L 142 314.064 143.421 317.466 L 144.842 320.867 147.872 322.434 L 150.901 324 165.050 324 L 179.200 324 182.600 320.600 L 186 317.200 186 300.677 L 186 284.153 183.436 281.106 L 180.871 278.059 177.186 277.035 L 173.500 276.011 163.500 276.062 L 153.500 276.113 150.035 277.306 M 212.762 276.667 L 210.023 277.131 207.153 280.001 L 204.283 282.871 203.652 286.686 L 203.022 290.500 203.017 301 L 203.011 311.500 204.035 315.186 L 205.059 318.871 208.106 321.436 L 211.153 324 225.591 324 L 240.029 324 243.765 320.578 L 247.500 317.157 247.838 302.257 L 248.176 287.358 246.672 283.757 L 245.167 280.156 242.379 278.328 L 239.591 276.500 227.545 276.352 L 215.500 276.203 212.762 276.667 M 273.333 277.097 L 270.166 278.014 267.583 281.084 L 265 284.153 265 299.626 L 265 315.099 266.517 318.033 L 268.034 320.966 270.967 322.483 L 273.901 324 287 324 L 300.099 324 303.033 322.483 L 305.966 320.966 307.483 318.033 L 309 315.099 309 300.198 L 309 285.296 306.715 281.898 L 304.431 278.500 300.965 277.306 L 297.500 276.113 287 276.147 L 276.500 276.180 273.333 277.097 M 334.094 277.306 L 330.687 278.500 328.594 281.319 L 326.500 284.139 326.179 299.018 L 325.857 313.897 327.445 317.243 L 329.032 320.588 331.920 322.294 L 334.809 324 349.004 324 L 363.200 324 366.600 320.600 L 370 317.200 370 300.677 L 370 284.153 367.436 281.106 L 364.871 278.059 361.186 277.035 L 357.500 276.011 347.500 276.062 L 337.500 276.113 334.094 277.306 M 151.667 285.667 L 151 286.333 151 300.560 L 151 314.786 152.582 315.393 L 154.164 316 164.148 316 L 174.131 316 176.066 314.965 L 178 313.930 178 300.665 L 178 287.400 176.800 286.200 L 175.600 285 163.967 285 L 152.333 285 151.667 285.667 M 213.200 286.200 L 212 287.400 212 300.500 L 212 313.600 213.200 314.800 L 214.400 316 225.500 316 L 236.600 316 237.800 314.800 L 239 313.600 239 299.907 L 239 286.214 237.418 285.607 L 235.836 285 225.118 285 L 214.400 285 213.200 286.200 M 274.051 286.904 L 273 288.869 273 300.863 L 273 312.857 274.571 314.429 L 276.143 316 286.821 315.985 L 297.500 315.969 298.779 315.158 L 300.057 314.347 299.779 299.923 L 299.500 285.500 287.301 285.220 L 275.103 284.939 274.051 286.904 M 335.667 285.667 L 335 286.333 335 299.967 L 335 313.600 336.200 314.800 L 337.400 316 347.766 316 L 358.131 316 360.066 314.965 L 362 313.930 362 300.665 L 362 287.400 360.800 286.200 L 359.600 285 347.967 285 L 336.333 285 335.667 285.667 M 150.035 333.306 L 146.569 334.500 144.285 337.898 L 142 341.296 142 355.747 L 142 370.198 143.635 373.643 L 145.270 377.088 148.225 378.616 L 151.180 380.145 165.675 379.822 L 180.169 379.500 183.085 376.234 L 186 372.968 186 356.619 L 186 340.270 183.832 337.514 L 181.664 334.758 178.364 333.379 L 175.064 332 164.282 332.056 L 153.500 332.113 150.035 333.306 M 212.258 332.657 L 210.017 333.137 207.150 336.004 L 204.283 338.871 203.652 342.686 L 203.022 346.500 203.017 357 L 203.011 367.500 204.035 371.186 L 205.059 374.871 208.106 377.436 L 211.153 380 225.442 380 L 239.730 380 242.486 377.832 L 245.242 375.664 246.621 372.364 L 248 369.064 248 356 L 248 342.936 246.584 339.546 L 245.167 336.156 242.379 334.328 L 239.592 332.500 227.046 332.339 L 214.500 332.178 212.258 332.657 M 272.415 333.381 L 269.330 334.765 267.165 337.517 L 265 340.270 265 355.685 L 265 371.099 266.517 374.033 L 268.034 376.966 270.967 378.483 L 273.901 380 287 380 L 300.099 380 303.033 378.483 L 305.966 376.966 307.483 374.033 L 309 371.099 308.985 356.300 L 308.971 341.500 307.735 339.096 L 306.500 336.693 303.681 334.596 L 300.861 332.500 288.181 332.249 L 275.500 331.998 272.415 333.381 M 350.199 342.588 L 345.005 345.177 341.536 349.229 L 338.067 353.281 336.506 357.982 L 334.945 362.683 335.222 377.351 L 335.500 392.019 361.493 366.009 L 387.486 340 371.439 340 L 355.393 340 350.199 342.588 M 151.667 341.667 L 151 342.333 151 355.967 L 151 369.600 152.200 370.800 L 153.400 372 163.766 372 L 174.131 372 176.066 370.965 L 178 369.930 178 356.665 L 178 343.400 176.800 342.200 L 175.600 341 163.967 341 L 152.333 341 151.667 341.667 M 213.229 342.171 L 212 343.400 212 356.665 L 212 369.930 213.934 370.965 L 215.869 372 226.312 372 L 236.755 372 237.907 370.613 L 239.058 369.225 238.779 355.363 L 238.500 341.500 226.479 341.221 L 214.458 340.942 213.229 342.171 M 274.051 342.904 L 273 344.869 273 356.863 L 273 368.857 274.571 370.429 L 276.143 372 286.821 371.985 L 297.500 371.969 298.779 371.158 L 300.057 370.347 299.779 355.923 L 299.500 341.500 287.301 341.220 L 275.103 340.939 274.051 342.904" stroke="none" fill="#052d4c" fill-rule="evenodd"/></svg>
