<svg id="Layer_1" height="512" viewBox="0 0 24 24" width="512" xmlns="http://www.w3.org/2000/svg" data-name="Layer 1"><g><path d="m12 1a11 11 0 1 0 11 11 11.007 11.007 0 0 0 -11-11zm0 21a10 10 0 1 1 10-10 10.016 10.016 0 0 1 -10 10z" fill="#303754"/><path d="m12 2a10 10 0 1 0 10 10 10.016 10.016 0 0 0 -10-10zm7 11.35a.5.5 0 0 1 -.5.5h-.88a4.787 4.787 0 0 1 -.34.81l.63.63a.483.483 0 0 1 0 .7l-1.92 1.92a.483.483 0 0 1 -.7 0l-.63-.63a5.773 5.773 0 0 1 -.81.34v.88a.5.5 0 0 1 -.5.5h-2.7a.5.5 0 0 1 -.5-.5v-.88a5.773 5.773 0 0 1 -.81-.34l-.63.63a.483.483 0 0 1 -.7 0l-1.92-1.92a.483.483 0 0 1 0-.7l.63-.63a5.773 5.773 0 0 1 -.34-.81h-.88a.5.5 0 0 1 -.5-.5v-2.7a.5.5 0 0 1 .5-.5h.88a5.773 5.773 0 0 1 .34-.81l-.63-.63a.483.483 0 0 1 0-.7l1.92-1.92a.483.483 0 0 1 .7 0l.63.63a5.773 5.773 0 0 1 .81-.34v-.88a.5.5 0 0 1 .5-.5h2.7a.5.5 0 0 1 .5.5v.88a5.773 5.773 0 0 1 .81.34l.63-.63a.5.5 0 0 1 .7 0l1.92 1.92a.483.483 0 0 1 0 .7l-.63.63a4.787 4.787 0 0 1 .34.81h.88a.5.5 0 0 1 .5.5z" fill="#fff"/></g><g><path d="m18.5 10.15h-.88a4.787 4.787 0 0 0 -.34-.81l.63-.63a.483.483 0 0 0 0-.7l-1.92-1.92a.5.5 0 0 0 -.7 0l-.63.63a5.773 5.773 0 0 0 -.81-.34v-.88a.5.5 0 0 0 -.5-.5h-2.7a.5.5 0 0 0 -.5.5v.88a5.773 5.773 0 0 0 -.81.34l-.63-.63a.483.483 0 0 0 -.7 0l-1.92 1.92a.483.483 0 0 0 0 .7l.63.63a5.773 5.773 0 0 0 -.34.81h-.88a.5.5 0 0 0 -.5.5v2.7a.5.5 0 0 0 .5.5h.88a5.773 5.773 0 0 0 .34.81l-.63.63a.483.483 0 0 0 0 .7l1.92 1.92a.483.483 0 0 0 .7 0l.63-.63a5.773 5.773 0 0 0 .81.34v.88a.5.5 0 0 0 .5.5h2.7a.5.5 0 0 0 .5-.5v-.88a5.773 5.773 0 0 0 .81-.34l.63.63a.483.483 0 0 0 .7 0l1.92-1.92a.483.483 0 0 0 0-.7l-.63-.63a4.787 4.787 0 0 0 .34-.81h.88a.5.5 0 0 0 .5-.5v-2.7a.5.5 0 0 0 -.5-.5zm-.5 2.7h-.76a.511.511 0 0 0 -.48.38 5.39 5.39 0 0 1 -.52 1.27.483.483 0 0 0 .08.6l.53.54-1.21 1.21-.53-.53a.486.486 0 0 0 -.61-.08 5.39 5.39 0 0 1 -1.27.52.511.511 0 0 0 -.38.48v.76h-1.7v-.76a.511.511 0 0 0 -.38-.48 5.39 5.39 0 0 1 -1.27-.52.483.483 0 0 0 -.6.08l-.54.53-1.21-1.21.53-.54a.483.483 0 0 0 .08-.6 5.39 5.39 0 0 1 -.52-1.27.511.511 0 0 0 -.48-.38h-.76v-1.7h.76a.511.511 0 0 0 .48-.38 5.39 5.39 0 0 1 .52-1.27.5.5 0 0 0 -.08-.61l-.53-.53 1.21-1.21.54.53a.483.483 0 0 0 .6.08 5.39 5.39 0 0 1 1.27-.52.511.511 0 0 0 .38-.48v-.76h1.7v.76a.511.511 0 0 0 .38.48 5.39 5.39 0 0 1 1.27.52.486.486 0 0 0 .61-.08l.53-.53 1.21 1.21-.53.53a.5.5 0 0 0 -.08.61 5.39 5.39 0 0 1 .52 1.27.511.511 0 0 0 .48.38h.76z" fill="#303754"/><path d="m17.24 11.15a.511.511 0 0 1 -.48-.38 5.39 5.39 0 0 0 -.52-1.27.5.5 0 0 1 .08-.61l.53-.53-1.21-1.21-.53.53a.486.486 0 0 1 -.61.08 5.39 5.39 0 0 0 -1.27-.52.511.511 0 0 1 -.38-.48v-.76h-1.7v.76a.511.511 0 0 1 -.38.48 5.39 5.39 0 0 0 -1.27.52.483.483 0 0 1 -.6-.08l-.54-.53-1.21 1.21.53.53a.5.5 0 0 1 .08.61 5.39 5.39 0 0 0 -.52 1.27.511.511 0 0 1 -.48.38h-.76v1.7h.76a.511.511 0 0 1 .48.38 5.39 5.39 0 0 0 .52 1.27.483.483 0 0 1 -.08.6l-.53.54 1.21 1.21.54-.53a.483.483 0 0 1 .6-.08 5.39 5.39 0 0 0 1.27.52.511.511 0 0 1 .38.48v.76h1.7v-.76a.511.511 0 0 1 .38-.48 5.39 5.39 0 0 0 1.27-.52.486.486 0 0 1 .61.08l.53.53 1.21-1.21-.53-.54a.483.483 0 0 1 -.08-.6 5.39 5.39 0 0 0 .52-1.27.511.511 0 0 1 .48-.38h.76v-1.7zm-5.24 3.35a2.5 2.5 0 1 1 2.5-2.5 2.5 2.5 0 0 1 -2.5 2.5z" fill="#2c98f6"/></g><g><path d="m12 9.5a2.5 2.5 0 1 0 2.5 2.5 2.5 2.5 0 0 0 -2.5-2.5zm0 4a1.5 1.5 0 1 1 1.5-1.5 1.5 1.5 0 0 1 -1.5 1.5z" fill="#303754"/><circle cx="12" cy="12" fill="#fff" r="1.5"/></g></svg>