<svg xmlns="http://www.w3.org/2000/svg" width="1400" height="1400" viewBox="0 0 1400 1400" version="1.1"><path d="M 679 282.027 L 671.500 282.774 657.500 283.952 L 643.500 285.130 636 286.659 L 628.500 288.187 621 289.475 L 613.500 290.763 606.500 292.472 L 599.500 294.180 593 296.036 L 586.500 297.893 575.500 301.406 L 564.500 304.920 558.500 306.979 L 552.500 309.037 549.349 310.519 L 546.198 312 545.415 312 L 544.631 312 540.066 314.108 L 535.500 316.216 530 318.724 L 524.500 321.233 517 324.833 L 509.500 328.433 500 333.847 L 490.500 339.260 488.500 340.397 L 486.500 341.535 483.500 343.441 L 480.500 345.347 469.500 352.756 L 458.500 360.164 455.448 362.349 L 452.396 364.534 438.948 375.422 L 425.500 386.311 408.974 402.905 L 392.447 419.500 385.408 428 L 378.370 436.500 371.907 445 L 365.443 453.500 363.729 456 L 362.016 458.500 358.670 463.500 L 355.324 468.500 350.812 475.500 L 346.299 482.500 344.619 485.500 L 342.939 488.500 338.449 496.500 L 333.959 504.500 327.980 516.813 L 322 529.126 322 529.828 L 322 530.530 320.140 534.015 L 318.280 537.500 317.529 540 L 316.778 542.500 315.407 545.500 L 314.037 548.500 311.979 554.500 L 309.920 560.500 306.406 571.500 L 302.893 582.500 301.034 589 L 299.175 595.500 296.671 607 L 294.166 618.500 292.057 629.902 L 289.947 641.304 287.782 669.309 L 285.617 697.314 287.810 725.907 L 290.002 754.500 292.085 765.500 L 294.168 776.500 296.688 788 L 299.208 799.500 300.717 804.349 L 302.226 809.197 303.543 814.349 L 304.859 819.500 306.504 824.500 L 308.149 829.500 310.681 836.500 L 313.213 843.500 315.060 848 L 316.906 852.500 320.044 860 L 323.183 867.500 331.591 884.599 L 340 901.697 340 907.283 L 340 912.870 338.936 915.667 L 337.873 918.465 335.338 927.983 L 332.804 937.500 331.046 944 L 329.287 950.500 326.546 960.500 L 323.804 970.500 321.891 977.500 L 319.978 984.500 317.384 994 L 314.790 1003.500 313.288 1009.500 L 311.787 1015.500 309.893 1021.254 L 308 1027.008 308 1028.500 L 308 1029.992 306.107 1035.746 L 304.213 1041.500 302.698 1047.500 L 301.182 1053.500 298.549 1063 L 295.917 1072.500 294.070 1079.500 L 292.224 1086.500 289.585 1096.366 L 286.946 1106.232 285.973 1108.050 L 285 1109.869 285 1113.466 L 285 1117.063 286.628 1117.688 L 288.256 1118.312 293.378 1117.084 L 298.500 1115.856 307.500 1113.468 L 316.500 1111.080 322.500 1109.497 L 328.500 1107.913 335 1106.458 L 341.500 1105.004 343.900 1103.955 L 346.299 1102.907 352.400 1101.554 L 358.500 1100.202 370.500 1097.014 L 382.500 1093.826 392 1091.345 L 401.500 1088.864 408.500 1087.019 L 415.500 1085.173 425.247 1082.575 L 434.994 1079.976 444.747 1077.400 L 454.500 1074.823 460.811 1073.414 L 467.122 1072.005 468.811 1071.115 L 470.500 1070.224 476.500 1069.013 L 482.500 1067.802 488.218 1065.901 L 493.937 1064 500.367 1064 L 506.797 1064 512.148 1066.784 L 517.500 1069.568 525 1072.966 L 532.500 1076.365 538 1078.722 L 543.500 1081.080 552 1084.420 L 560.500 1087.760 572.500 1091.785 L 584.500 1095.809 593.500 1098.316 L 602.500 1100.823 606.500 1101.495 L 610.500 1102.166 615 1103.527 L 619.500 1104.887 627.500 1105.990 L 635.500 1107.093 643 1108.529 L 650.500 1109.966 666 1111.037 L 681.500 1112.108 700 1112.102 L 718.500 1112.096 734.500 1111.017 L 750.500 1109.937 762.500 1107.950 L 774.500 1105.964 780 1104.974 L 785.500 1103.984 796 1101.573 L 806.500 1099.162 812.832 1097.542 L 819.164 1095.922 833.832 1091.001 L 848.500 1086.079 857 1082.468 L 865.500 1078.856 867 1078.288 L 868.500 1077.721 879 1072.862 L 889.500 1068.002 891 1067.056 L 892.500 1066.110 900.500 1061.960 L 908.500 1057.810 910.079 1056.405 L 911.657 1055 912.278 1055 L 912.899 1055 921.830 1049.250 L 930.762 1043.500 936.631 1039.530 L 942.500 1035.560 949 1030.616 L 955.500 1025.672 967 1016.110 L 978.500 1006.547 992.573 992.524 L 1006.646 978.500 1017.106 966 L 1027.566 953.500 1033.533 945.500 L 1039.500 937.500 1047.119 926 L 1054.738 914.500 1059.073 907 L 1063.407 899.500 1067.237 892.500 L 1071.066 885.500 1072.896 881.500 L 1074.725 877.500 1078.253 870 L 1081.780 862.500 1084.890 855.332 L 1088 848.165 1088 847.109 L 1088 846.054 1089.890 841.777 L 1091.780 837.500 1093.768 832 L 1095.755 826.500 1098.363 818 L 1100.971 809.500 1102.546 803.500 L 1104.122 797.500 1106.619 786.500 L 1109.117 775.500 1111.051 763.500 L 1112.985 751.500 1114.218 744 L 1115.451 736.500 1115.464 697 L 1115.476 657.500 1114.302 650.500 L 1113.128 643.500 1111.531 633 L 1109.934 622.500 1107.410 611 L 1104.886 599.500 1103.476 594.500 L 1102.065 589.500 1098.942 578.500 L 1095.818 567.500 1093.909 562.250 L 1092 557 1089.863 551.250 L 1087.726 545.500 1084.808 538.500 L 1081.890 531.500 1080.195 527.638 L 1078.500 523.775 1070.916 508.638 L 1063.332 493.500 1058.529 485.500 L 1053.726 477.500 1046.169 466 L 1038.612 454.500 1032.148 446 L 1025.684 437.500 1018.673 429 L 1011.662 420.500 994.581 403.456 L 977.500 386.412 972.137 381.956 L 966.773 377.500 965.637 376.500 L 964.500 375.500 957.500 369.980 L 950.500 364.461 944.730 360.480 L 938.961 356.500 932.230 351.745 L 925.500 346.989 918.181 342.745 L 910.861 338.500 906.181 335.779 L 901.500 333.059 886.500 325.620 L 871.500 318.182 866.500 316.019 L 861.500 313.856 853 310.541 L 844.500 307.226 832 303.143 L 819.500 299.060 810.500 296.591 L 801.500 294.123 795 292.557 L 788.500 290.991 776.615 288.971 L 764.730 286.951 763.975 286.485 L 763.221 286.018 747.360 284.506 L 731.500 282.993 721.500 282.022 L 711.500 281.052 699 281.166 L 686.500 281.280 679 282.027 M 662.500 353.570 L 647.500 354.884 641.500 355.954 L 635.500 357.024 626 358.911 L 616.500 360.798 608.533 362.914 L 600.565 365.029 593.033 367.577 L 585.500 370.125 580 372.169 L 574.500 374.213 571.500 375.503 L 568.500 376.792 561.813 379.896 L 555.126 383 554.558 383 L 553.990 383 541.245 390.132 L 528.500 397.263 517.500 404.709 L 506.500 412.154 503 414.630 L 499.500 417.106 489 425.766 L 478.500 434.427 463.910 448.963 L 449.320 463.500 438.670 476.289 L 428.021 489.079 422.624 496.376 L 417.228 503.672 411.482 512.586 L 405.737 521.500 403.849 524.236 L 401.961 526.971 400.911 529.236 L 399.861 531.500 397.029 536.500 L 394.197 541.500 391.011 548 L 387.824 554.500 385.412 559.342 L 383 564.185 383 565.277 L 383 566.369 381.058 570.434 L 379.115 574.500 377.479 579 L 375.843 583.500 373.332 591 L 370.822 598.500 368.436 607.500 L 366.049 616.500 363.067 631 L 360.084 645.500 358.542 662.629 L 357 679.757 357 695 L 357 710.243 358.516 727.371 L 360.031 744.500 361.941 754 L 363.851 763.500 364.869 768.500 L 365.888 773.500 368.387 783 L 370.886 792.500 372.897 799 L 374.908 805.500 377.569 812.500 L 380.230 819.500 381.890 824 L 383.550 828.500 385.863 833.500 L 388.175 838.500 390.701 844 L 393.227 849.500 395.837 854.500 L 398.447 859.500 400.974 864.156 L 403.500 868.812 409.375 879.027 L 415.250 889.241 415.743 895.386 L 416.236 901.530 414.484 908.015 L 412.731 914.500 410.755 921.500 L 408.779 928.500 406.417 937 L 404.055 945.500 401.659 954 L 399.263 962.500 396.519 972.500 L 393.776 982.500 391.948 989.500 L 390.119 996.500 387.538 1005.943 L 384.957 1015.386 386.483 1016.912 L 388.009 1018.438 395.254 1016.787 L 402.500 1015.137 410.500 1013.213 L 418.500 1011.288 424 1009.715 L 429.500 1008.142 440 1005.452 L 450.500 1002.762 457 1000.979 L 463.500 999.197 469.500 997.703 L 475.500 996.210 485.500 993.508 L 495.500 990.807 501.500 989.310 L 507.500 987.813 512.884 988.431 L 518.267 989.049 531.384 996.422 L 544.500 1003.795 553 1007.838 L 561.500 1011.882 565.500 1013.554 L 569.500 1015.227 575.500 1017.677 L 581.500 1020.128 590 1022.949 L 598.500 1025.770 607.500 1028.316 L 616.500 1030.862 625.500 1032.902 L 634.500 1034.941 638 1035.468 L 641.500 1035.994 654 1037.978 L 666.500 1039.961 689.109 1040.989 L 711.717 1042.016 726.609 1040.965 L 741.500 1039.914 756 1037.458 L 770.500 1035.002 779.500 1032.896 L 788.500 1030.791 797 1028.283 L 805.500 1025.775 813 1023.356 L 820.500 1020.936 823.154 1019.468 L 825.809 1018 827.051 1018 L 828.294 1018 840.397 1012.541 L 852.500 1007.082 858 1004.174 L 863.500 1001.266 868 998.801 L 872.500 996.337 876.500 994.057 L 880.500 991.778 890.500 985.159 L 900.500 978.541 909.421 971.782 L 918.343 965.023 927.921 956.597 L 937.500 948.171 947.524 937.836 L 957.547 927.500 962.024 922.168 L 966.500 916.836 968.500 914.547 L 970.500 912.259 972 910.360 L 973.500 908.460 976.500 904.482 L 979.500 900.503 983.304 895.002 L 987.107 889.500 990.688 884 L 994.269 878.500 996.154 875.764 L 998.039 873.029 999.089 870.764 L 1000.139 868.500 1003.016 863.500 L 1005.893 858.500 1009.537 851 L 1013.181 843.500 1015.667 838 L 1018.154 832.500 1019.518 829.500 L 1020.883 826.500 1023.378 820 L 1025.872 813.500 1028.036 807 L 1030.200 800.500 1032.510 792.500 L 1034.820 784.500 1037.408 773.500 L 1039.995 762.500 1040.937 756 L 1041.878 749.500 1043.585 739 L 1045.291 728.500 1045.277 699 L 1045.263 669.500 1044.193 663 L 1043.122 656.500 1041.548 646 L 1039.974 635.500 1037.879 626.500 L 1035.784 617.500 1033.363 608.500 L 1030.943 599.500 1028.338 591 L 1025.733 582.500 1023.383 576.244 L 1021.032 569.987 1018.457 563.244 L 1015.883 556.500 1014.506 553.500 L 1013.129 550.500 1007.918 539.500 L 1002.707 528.500 998.250 520.500 L 993.794 512.500 991.561 509 L 989.328 505.500 984.418 498 L 979.509 490.500 975.042 484.500 L 970.576 478.500 963.878 470.500 L 957.180 462.500 949.158 454.207 L 941.136 445.914 932.818 438.371 L 924.500 430.828 915.500 424.079 L 906.500 417.329 898 411.841 L 889.500 406.352 886.500 404.426 L 883.500 402.500 879.500 400.318 L 875.500 398.135 864 392.507 L 852.500 386.879 849.542 385.367 L 846.584 383.854 837.853 380.442 L 829.121 377.031 818.311 373.410 L 807.500 369.790 800.500 367.859 L 793.500 365.928 785 363.946 L 776.500 361.965 769.500 360.539 L 762.500 359.113 751 357.085 L 739.500 355.057 719.955 353.529 L 700.410 352 688.955 352.128 L 677.500 352.256 662.500 353.570 M 554.500 504.996 L 550.500 505.841 543.636 507.889 L 536.772 509.937 533.142 512.705 L 529.513 515.473 525.150 519.987 L 520.787 524.500 515.046 531.500 L 509.306 538.500 504.911 546.500 L 500.516 554.500 498.217 560 L 495.918 565.500 493.278 576.500 L 490.637 587.500 490.616 602 L 490.595 616.500 492.853 627.500 L 495.111 638.500 497.613 646 L 500.116 653.500 502.671 660 L 505.226 666.500 506.547 669 L 507.868 671.500 513.510 681.785 L 519.152 692.070 523.551 698.785 L 527.950 705.500 530.015 708.500 L 532.080 711.500 538.984 721 L 545.888 730.500 549.694 735.344 L 553.500 740.189 555.505 742.959 L 557.510 745.729 562.505 751.549 L 567.500 757.369 574.461 765.434 L 581.423 773.500 594.961 787.072 L 608.500 800.643 615.938 807.072 L 623.376 813.500 625.028 815 L 626.679 816.500 629.590 818.761 L 632.500 821.022 638 825.303 L 643.500 829.584 650.500 834.551 L 657.500 839.518 661.500 842.099 L 665.500 844.680 668.500 846.589 L 671.500 848.498 678.500 852.652 L 685.500 856.806 700.500 864.327 L 715.500 871.848 722.500 874.787 L 729.500 877.726 735.250 879.863 L 741 882 746.250 883.878 L 751.500 885.755 760 888.355 L 768.500 890.954 777 893.058 L 785.500 895.163 801.500 896.035 L 817.500 896.907 826 896.008 L 834.500 895.109 841 892.949 L 847.500 890.789 853.657 888.400 L 859.814 886.011 865.157 883.330 L 870.500 880.650 877 876.187 L 883.500 871.724 887.855 867.612 L 892.211 863.500 895.909 858.500 L 899.606 853.500 901.896 849.732 L 904.186 845.963 906.168 840.732 L 908.150 835.500 909.052 832.586 L 909.955 829.671 911.094 816.787 L 912.233 803.904 911.009 799.533 L 909.786 795.162 905.946 792.077 L 902.106 788.991 899.803 787.998 L 897.500 787.005 896 786.039 L 894.500 785.074 882.500 779.413 L 870.500 773.752 862.500 769.990 L 854.500 766.227 847 762.721 L 839.500 759.215 832 755.703 L 824.500 752.192 818.280 749.596 L 812.060 747 809.226 747 L 806.392 747 801.946 749.900 L 797.500 752.800 795.742 755.150 L 793.985 757.500 778.070 777.106 L 762.155 796.711 758.520 798.856 L 754.886 801 751.814 801 L 748.742 801 741.920 798.539 L 735.099 796.079 733.299 795.108 L 731.500 794.137 724.500 790.904 L 717.500 787.670 709.500 783.198 L 701.500 778.726 691.007 771.737 L 680.515 764.747 673.007 759.131 L 665.500 753.515 651.627 740.007 L 637.754 726.500 629.627 716.593 L 621.500 706.686 614.765 697.093 L 608.030 687.500 603.522 679.412 L 599.015 671.324 598.462 668.412 L 597.910 665.500 600.205 661.346 L 602.500 657.192 608.900 650.077 L 615.301 642.963 619.633 637.383 L 623.965 631.804 626.880 626.652 L 629.795 621.500 631.559 615.815 L 633.324 610.130 631.215 603.815 L 629.107 597.500 625.478 589 L 621.849 580.500 620.411 576.586 L 618.973 572.673 618.117 571.586 L 617.261 570.500 615.983 566.500 L 614.706 562.500 612.853 559.015 L 611 555.530 611 554.624 L 611 553.719 609.127 549.610 L 607.254 545.500 604.721 539.500 L 602.188 533.500 599.594 527.375 L 597 521.250 597 520.463 L 597 519.675 593.931 514.892 L 590.861 510.109 586.181 507.326 L 581.500 504.543 570 504.347 L 558.500 504.152 554.500 504.996" stroke="none" fill="#f5f9f6" fill-rule="evenodd"/><path d="M 622 1.154 L 619.500 2.181 607 2.981 L 594.500 3.781 589 5.381 L 583.500 6.980 574.500 7.919 L 565.500 8.858 562 10.299 L 558.500 11.740 551.621 12.411 L 544.742 13.082 541.930 14.536 L 539.118 15.991 532 17 L 524.882 18.009 522.075 19.461 L 519.267 20.913 513.199 21.891 L 507.132 22.868 504.816 24.314 L 502.500 25.761 497.793 26.355 L 493.086 26.950 489.308 28.975 L 485.530 31 483 31 L 480.470 31 476.871 32.929 L 473.271 34.858 469.386 35.551 L 465.500 36.243 462.382 38.122 L 459.264 40 457.281 40 L 455.298 40 450.891 42.343 L 446.483 44.687 442.842 45.370 L 439.201 46.053 438.065 47.422 L 436.929 48.791 433.248 49.481 L 429.568 50.172 427.034 51.904 L 424.500 53.637 420.369 54.823 L 416.237 56.009 414.996 57.505 L 413.755 59 411.512 59 L 409.270 59 406.806 60.938 L 404.342 62.876 401.421 63.572 L 398.500 64.269 396.935 65.622 L 395.370 66.975 391.935 68.148 L 388.500 69.320 386.115 71.160 L 383.730 73 382.059 73 L 380.389 73 377 75.500 L 373.611 78 371.961 78 L 370.310 78 368.581 79.910 L 366.853 81.820 364.176 82.488 L 361.500 83.156 359.950 84.552 L 358.401 85.947 351.486 89.617 L 344.570 93.287 343.214 94.643 L 341.857 96 340.505 96 L 339.153 96 336.182 98.500 L 333.211 101 332.356 101.054 L 331.500 101.108 326 105.041 L 320.500 108.974 317.420 110.429 L 314.341 111.884 313.048 113.442 L 311.755 115 310.552 115 L 309.349 115 307 117.500 L 304.651 120 303.732 120 L 302.812 120 297.152 124.250 L 291.491 128.500 287.001 131.500 L 282.512 134.500 274.325 141 L 266.139 147.500 261.759 150.722 L 257.378 153.943 252.710 158.222 L 248.042 162.500 246.303 164 L 244.565 165.500 237.532 171.335 L 230.500 177.170 216.231 190.690 L 201.963 204.210 190.231 216.908 L 178.500 229.606 175.055 233.553 L 171.610 237.500 166.634 243.500 L 161.659 249.500 159.346 252 L 157.033 254.500 152.034 261 L 147.036 267.500 145.018 269.535 L 143 271.570 143 272.817 L 143 274.063 141.546 274.621 L 140.092 275.179 137.796 278.792 L 135.500 282.405 134 284.580 L 132.500 286.754 130.500 289.439 L 128.500 292.125 126.250 294.957 L 124 297.789 124 298.739 L 124 299.690 122 301.500 L 120 303.310 120 304.481 L 120 305.651 117.500 308 L 115 310.349 115 311.623 L 115 312.897 112.500 315.595 L 110 318.292 110 319.491 L 110 320.690 108 322.500 L 106 324.310 106 325.520 L 106 326.730 103.784 329.548 L 101.567 332.366 99.837 335.433 L 98.107 338.500 96.569 341.682 L 95.030 344.863 94 345.500 L 92.970 346.137 91.440 349.318 L 89.911 352.500 87.049 357.500 L 84.186 362.500 82.206 366.621 L 80.227 370.742 79.113 371.430 L 78 372.118 78 373.865 L 78 375.611 75.500 379 L 73 382.389 73 384.059 L 73 385.730 71.145 388.115 L 69.291 390.500 68.094 394.170 L 66.898 397.840 65.553 398.956 L 64.209 400.071 63.578 403.435 L 62.947 406.799 61.481 408.016 L 60.014 409.233 58.914 413.366 L 57.814 417.500 56.419 419.066 L 55.024 420.631 54.357 424.066 L 53.690 427.500 51.845 429.885 L 50 432.270 50 433.986 L 50 435.702 47.500 440.404 L 45 445.106 45 447 L 45 448.894 42.500 453.596 L 40 458.298 40 460.592 L 40 462.886 38.111 466.193 L 36.221 469.500 35.540 473.386 L 34.858 477.271 32.929 480.871 L 31 484.470 31 487.024 L 31 489.577 29.042 493.418 L 27.084 497.259 26.419 501.879 L 25.755 506.500 24.006 510.500 L 22.257 514.500 21.600 519.704 L 20.943 524.908 18.994 529.204 L 17.044 533.500 16.978 537.500 L 16.912 541.500 15.345 545.500 L 13.778 549.500 12.491 558.624 L 11.205 567.749 10.011 569.980 L 8.817 572.211 7.851 582.855 L 6.885 593.500 5.381 598.500 L 3.877 603.500 2.975 619 L 2.074 634.500 1.037 637.993 L 0 641.487 0 700 L 0 758.513 1.059 762.007 L 2.117 765.500 3.012 781 L 3.906 796.500 5.439 801.362 L 6.972 806.225 7.561 814.362 L 8.151 822.500 9.971 829 L 11.791 835.500 12.459 841.875 L 13.128 848.250 15.064 853.162 L 17 858.074 17 862.102 L 17 866.129 18.974 870.815 L 20.948 875.500 21.908 881.684 L 22.868 887.868 24.314 890.184 L 25.761 892.500 26.331 897.031 L 26.902 901.562 28.929 906.031 L 30.956 910.500 30.978 913.015 L 31 915.530 32.929 919.129 L 34.858 922.729 35.551 926.614 L 36.243 930.500 38 933.500 L 39.757 936.500 40.437 940.323 L 41.118 944.146 43.055 947.323 L 44.993 950.500 45.028 952.500 L 45.063 954.500 47.522 959.500 L 49.982 964.500 49.991 966.115 L 50 967.730 51.845 970.115 L 53.690 972.500 54.336 975.831 L 54.982 979.162 56.991 981.716 L 59 984.270 59 986.500 L 59 988.730 60.938 991.194 L 62.876 993.658 63.572 996.579 L 64.269 999.500 65.622 1001.065 L 66.975 1002.630 68.148 1006.065 L 69.320 1009.500 71.160 1011.885 L 73 1014.270 73 1016 L 73 1017.730 74.827 1020.115 L 76.654 1022.500 80.453 1030 L 84.252 1037.500 87.082 1042.500 L 89.911 1047.500 91.440 1050.682 L 92.970 1053.863 94 1054.500 L 95.030 1055.137 96.569 1058.318 L 98.107 1061.500 99.837 1064.567 L 101.567 1067.634 103.784 1070.452 L 106 1073.270 106 1074.241 L 106 1075.211 108.500 1078.182 L 111 1081.153 111 1082.577 L 111 1084 112.021 1084 L 113.043 1084 114.212 1086.750 L 115.382 1089.500 117.330 1091.713 L 119.278 1093.925 120.389 1095.841 L 121.500 1097.757 126.151 1104.674 L 130.803 1111.591 132.401 1112.918 L 134 1114.245 134 1115.214 L 134 1116.184 136.250 1119.126 L 138.500 1122.068 141 1124.988 L 143.500 1127.908 145.230 1130.204 L 146.960 1132.500 152.043 1139 L 157.125 1145.500 161.812 1150.916 L 166.500 1156.333 168.500 1158.674 L 170.500 1161.016 175 1166.202 L 179.500 1171.388 190.158 1183.013 L 200.816 1194.637 215.658 1208.740 L 230.500 1222.844 240 1230.707 L 249.500 1238.569 253 1241.816 L 256.500 1245.063 261.284 1248.782 L 266.068 1252.500 273.784 1258.574 L 281.500 1264.648 286.500 1268.091 L 291.500 1271.534 297.207 1275.767 L 302.915 1280 303.783 1280 L 304.651 1280 307 1282.500 L 309.349 1285 310.346 1285 L 311.343 1285 313.102 1286.593 L 314.862 1288.185 317.795 1289.843 L 320.727 1291.500 325.489 1294.500 L 330.252 1297.500 333.376 1299.742 L 336.500 1301.984 340 1303.592 L 343.500 1305.199 345 1306.486 L 346.500 1307.773 352.465 1310.926 L 358.430 1314.079 359.965 1315.462 L 361.500 1316.844 364.176 1317.512 L 366.853 1318.180 368.581 1320.090 L 370.310 1322 371.961 1322 L 373.611 1322 377 1324.500 L 380.389 1327 382.059 1327 L 383.730 1327 386.115 1328.862 L 388.500 1330.725 391 1331.494 L 393.500 1332.262 396 1333.985 L 398.500 1335.708 401.421 1336.416 L 404.342 1337.124 406.806 1339.062 L 409.270 1341 411.512 1341 L 413.755 1341 414.996 1342.495 L 416.237 1343.991 420.369 1345.177 L 424.500 1346.363 427.034 1348.096 L 429.568 1349.828 433.248 1350.519 L 436.929 1351.209 438.065 1352.578 L 439.201 1353.947 442.842 1354.630 L 446.483 1355.313 450.891 1357.657 L 455.298 1360 457.281 1360 L 459.264 1360 462.382 1361.878 L 465.500 1363.757 469.386 1364.449 L 473.271 1365.142 476.871 1367.071 L 480.470 1369 483 1369 L 485.530 1369 489.101 1370.914 L 492.672 1372.828 497.586 1373.523 L 502.500 1374.217 504.816 1375.675 L 507.132 1377.132 513.199 1378.109 L 519.267 1379.087 522.075 1380.539 L 524.882 1381.991 532 1383 L 539.118 1384.009 541.930 1385.464 L 544.742 1386.918 551.621 1387.589 L 558.500 1388.260 562 1389.701 L 565.500 1391.142 574.500 1392.081 L 583.500 1393.020 589 1394.619 L 594.500 1396.219 607 1397.014 L 619.500 1397.809 622.315 1398.905 L 625.130 1400 700.016 1400 L 774.902 1400 780.661 1398.500 L 786.420 1397 794.522 1397 L 802.623 1397 810.062 1395.068 L 817.500 1393.136 826.500 1392.135 L 835.500 1391.134 839 1389.697 L 842.500 1388.260 849.226 1387.605 L 855.953 1386.949 860.559 1384.975 L 865.166 1383 869.333 1382.978 L 873.500 1382.956 877.844 1380.985 L 882.189 1379.013 888.029 1378.073 L 893.868 1377.132 896.184 1375.675 L 898.500 1374.217 903.414 1373.523 L 908.328 1372.828 911.899 1370.914 L 915.470 1369 918 1369 L 920.530 1369 924.129 1367.071 L 927.729 1365.142 931.614 1364.449 L 935.500 1363.757 938.618 1361.878 L 941.736 1360 943.719 1360 L 945.702 1360 950.404 1357.500 L 955.106 1355 957 1355 L 958.894 1355 963.596 1352.500 L 968.298 1350 970.014 1350 L 971.730 1350 974.273 1348 L 976.815 1346 978.143 1346 L 979.471 1346 984.986 1343.374 L 990.500 1340.747 996 1338.285 L 1001.500 1335.824 1003 1334.905 L 1004.500 1333.985 1007 1332.851 L 1009.500 1331.717 1016.810 1328.109 L 1024.119 1324.500 1027.810 1322.646 L 1031.500 1320.792 1033 1319.474 L 1034.500 1318.156 1037.209 1317.480 L 1039.918 1316.804 1041.091 1315.390 L 1042.264 1313.977 1046.382 1311.986 L 1050.500 1309.994 1054.500 1307.566 L 1058.500 1305.137 1061.500 1303.724 L 1064.500 1302.310 1065.872 1300.655 L 1067.245 1299 1068.269 1299 L 1069.293 1299 1074.772 1295.250 L 1080.251 1291.500 1083.523 1289.500 L 1086.796 1287.500 1093.148 1283.298 L 1099.500 1279.096 1101 1277.750 L 1102.500 1276.404 1105.399 1274.452 L 1108.298 1272.500 1110.500 1271 L 1112.702 1269.500 1115.601 1267.520 L 1118.500 1265.541 1124.174 1261.020 L 1129.848 1256.500 1134.174 1253.307 L 1138.500 1250.114 1142.733 1246.307 L 1146.966 1242.500 1149.498 1240.500 L 1152.031 1238.500 1155.174 1236 L 1158.317 1233.500 1169.908 1223.064 L 1181.500 1212.627 1200.400 1193.564 L 1219.300 1174.500 1229.291 1162.500 L 1239.282 1150.500 1240.891 1148.694 L 1242.500 1146.888 1244.585 1144.694 L 1246.670 1142.500 1252.336 1135 L 1258.001 1127.500 1259.578 1125.500 L 1261.155 1123.500 1266.584 1116 L 1272.014 1108.500 1273.516 1106.500 L 1275.018 1104.500 1277.509 1101.356 L 1280 1098.211 1280 1097.191 L 1280 1096.170 1282.017 1093.835 L 1284.034 1091.500 1288.267 1085.101 L 1292.500 1078.702 1294.702 1075.101 L 1296.903 1071.500 1298.163 1069 L 1299.422 1066.500 1301.711 1063.673 L 1304 1060.847 1304 1059.578 L 1304 1058.310 1306 1056.500 L 1308 1054.690 1308 1053.577 L 1308 1052.464 1310.500 1048.785 L 1313 1045.106 1313 1043.708 L 1313 1042.310 1314.943 1040.551 L 1316.887 1038.793 1317.500 1036 L 1318.113 1033.207 1320.057 1031.449 L 1322 1029.690 1322 1028.039 L 1322 1026.389 1324.500 1023 L 1327 1019.611 1327 1018 L 1327 1016.389 1329.500 1013 L 1332 1009.611 1332 1007.941 L 1332 1006.270 1333.848 1003.885 L 1335.695 1001.500 1336.409 998.579 L 1337.124 995.658 1339.062 993.194 L 1341 990.730 1341 988.488 L 1341 986.245 1342.495 985.004 L 1343.991 983.763 1345.177 979.631 L 1346.363 975.500 1348.043 973 L 1349.723 970.500 1350.388 966.850 L 1351.053 963.201 1352.500 962 L 1353.947 960.799 1354.610 957.150 L 1355.272 953.500 1357.636 949.008 L 1360 944.516 1360 942.315 L 1360 940.114 1361.889 936.807 L 1363.779 933.500 1364.474 929.500 L 1365.169 925.500 1366.615 923.888 L 1368.060 922.276 1368.968 916.698 L 1369.876 911.119 1371.432 908.745 L 1372.988 906.370 1373.613 901.435 L 1374.239 896.500 1375.686 894.184 L 1377.132 891.868 1378.109 885.801 L 1379.087 879.733 1380.659 876.693 L 1382.231 873.653 1383.087 866.831 L 1383.944 860.009 1385.431 857.134 L 1386.918 854.258 1387.563 847.379 L 1388.208 840.500 1390.037 835 L 1391.866 829.500 1392.450 821.328 L 1393.034 813.156 1394.582 808.828 L 1396.130 804.500 1397.004 790.500 L 1397.878 776.500 1399.189 773 L 1400.500 769.500 1400.500 700 L 1400.500 630.500 1399.217 626.500 L 1397.934 622.500 1396.995 609 L 1396.056 595.500 1394.497 590.500 L 1392.938 585.500 1392.380 578 L 1391.822 570.500 1389.994 564.500 L 1388.166 558.500 1387.512 552.064 L 1386.858 545.627 1385.401 542.809 L 1383.944 539.991 1383.087 533.169 L 1382.231 526.347 1380.671 523.330 L 1379.110 520.313 1378.418 514.906 L 1377.725 509.500 1376.003 506 L 1374.281 502.500 1373.614 498.158 L 1372.947 493.816 1371.113 490.158 L 1369.279 486.500 1368.724 482.172 L 1368.169 477.845 1366.632 476.146 L 1365.095 474.448 1364.403 469.974 L 1363.711 465.500 1361.856 462.846 L 1360 460.191 1360 457.838 L 1360 455.484 1357.636 450.992 L 1355.272 446.500 1354.610 442.850 L 1353.947 439.201 1352.578 438.065 L 1351.209 436.929 1350.519 433.248 L 1349.828 429.568 1347.914 426.879 L 1346 424.191 1346 422.745 L 1346 421.298 1343.500 416.596 L 1341 411.894 1341 410.582 L 1341 409.270 1339.096 406.850 L 1337.193 404.430 1336.058 400.215 L 1334.923 396 1334 396 L 1333.077 396 1332.035 392.131 L 1330.993 388.261 1328.997 385.723 L 1327 383.185 1327 381.787 L 1327 380.389 1324.500 377 L 1322 373.611 1322 371.961 L 1322 370.310 1320.057 368.551 L 1318.113 366.793 1317.480 363.908 L 1316.846 361.023 1315.840 360.401 L 1314.834 359.780 1312.856 355.640 L 1310.878 351.500 1309.031 348.181 L 1307.185 344.862 1305.711 343.181 L 1304.237 341.500 1303.593 339.382 L 1302.949 337.264 1300.974 335.477 L 1299 333.690 1299 332 L 1299 330.310 1297.026 328.523 L 1295.051 326.736 1294.389 324.618 L 1293.726 322.500 1291.613 319.844 L 1289.500 317.187 1286.122 311.594 L 1282.745 306 1281.940 306 L 1281.135 306 1280.431 303.750 L 1279.726 301.500 1277.372 298.500 L 1275.018 295.500 1273.531 293.500 L 1272.045 291.500 1268.469 286.197 L 1264.894 280.894 1263.388 279.197 L 1261.882 277.500 1256.941 271.123 L 1252 264.745 1251.992 264.123 L 1251.984 263.500 1247.242 258.357 L 1242.500 253.215 1238.861 248.857 L 1235.222 244.500 1227.604 235.337 L 1219.987 226.174 1197.698 203.837 L 1175.409 181.500 1167.954 174.870 L 1160.500 168.240 1156 164.636 L 1151.500 161.033 1149.233 159.266 L 1146.966 157.500 1142.733 153.693 L 1138.500 149.886 1134.174 146.693 L 1129.848 143.500 1124.174 138.980 L 1118.500 134.459 1115.610 132.480 L 1112.719 130.500 1111.118 129.500 L 1109.516 128.500 1106.508 126.208 L 1103.500 123.915 1101.500 122.401 L 1099.500 120.887 1093.148 116.693 L 1086.796 112.500 1083.523 110.500 L 1080.251 108.500 1074.772 104.750 L 1069.293 101 1068.269 101 L 1067.245 101 1065.872 99.345 L 1064.500 97.690 1061.500 96.258 L 1058.500 94.826 1055.433 93.130 L 1052.366 91.433 1049.548 89.216 L 1046.730 87 1045.259 87 L 1043.789 87 1040.818 84.500 L 1037.847 82 1036.078 82 L 1034.310 82 1032.551 80.057 L 1030.793 78.113 1027.908 77.480 L 1025.023 76.846 1024.504 76.006 L 1023.984 75.166 1016.242 71.495 L 1008.500 67.824 1007 67.068 L 1005.500 66.312 1003.500 65.245 L 1001.500 64.178 996 61.715 L 990.500 59.253 984.986 56.626 L 979.471 54 978.143 54 L 976.815 54 974.273 52 L 971.730 50 970.014 50 L 968.298 50 963.596 47.500 L 958.894 45 956.582 45 L 954.270 45 951.832 43.082 L 949.394 41.164 945.447 40.461 L 941.500 39.757 938.500 38 L 935.500 36.243 931.614 35.551 L 927.729 34.858 924.129 32.929 L 920.530 31 918 31 L 915.470 31 911.899 29.086 L 908.328 27.172 903.414 26.477 L 898.500 25.783 896.184 24.325 L 893.868 22.868 888.029 21.927 L 882.189 20.987 877.844 19.015 L 873.500 17.044 869.333 17.022 L 865.166 17 860.559 15.025 L 855.953 13.051 849.226 12.395 L 842.500 11.740 839 10.303 L 835.500 8.866 826.500 7.865 L 817.500 6.864 810.062 4.932 L 802.623 3 794.522 3 L 786.420 3 780.661 1.500 L 774.902 0 699.701 0.063 L 624.500 0.127 622 1.154 M 679 282.027 L 671.500 282.774 657.500 283.952 L 643.500 285.130 636 286.659 L 628.500 288.187 621 289.475 L 613.500 290.763 606.500 292.472 L 599.500 294.180 593 296.036 L 586.500 297.893 575.500 301.406 L 564.500 304.920 558.500 306.979 L 552.500 309.037 549.349 310.519 L 546.198 312 545.415 312 L 544.631 312 540.066 314.108 L 535.500 316.216 530 318.724 L 524.500 321.233 517 324.833 L 509.500 328.433 500 333.847 L 490.500 339.260 488.500 340.397 L 486.500 341.535 483.500 343.441 L 480.500 345.347 469.500 352.756 L 458.500 360.164 455.448 362.349 L 452.396 364.534 438.948 375.422 L 425.500 386.311 408.974 402.905 L 392.447 419.500 385.408 428 L 378.370 436.500 371.907 445 L 365.443 453.500 363.729 456 L 362.016 458.500 358.670 463.500 L 355.324 468.500 350.812 475.500 L 346.299 482.500 344.619 485.500 L 342.939 488.500 338.449 496.500 L 333.959 504.500 327.980 516.813 L 322 529.126 322 529.828 L 322 530.530 320.140 534.015 L 318.280 537.500 317.529 540 L 316.778 542.500 315.407 545.500 L 314.037 548.500 311.979 554.500 L 309.920 560.500 306.406 571.500 L 302.893 582.500 301.034 589 L 299.175 595.500 296.671 607 L 294.166 618.500 292.057 629.902 L 289.947 641.304 287.782 669.309 L 285.617 697.314 287.810 725.907 L 290.002 754.500 292.085 765.500 L 294.168 776.500 296.688 788 L 299.208 799.500 300.717 804.349 L 302.226 809.197 303.543 814.349 L 304.859 819.500 306.504 824.500 L 308.149 829.500 310.681 836.500 L 313.213 843.500 315.060 848 L 316.906 852.500 320.044 860 L 323.183 867.500 331.591 884.599 L 340 901.697 340 907.283 L 340 912.870 338.936 915.667 L 337.873 918.465 335.338 927.983 L 332.804 937.500 331.046 944 L 329.287 950.500 326.546 960.500 L 323.804 970.500 321.891 977.500 L 319.978 984.500 317.384 994 L 314.790 1003.500 313.288 1009.500 L 311.787 1015.500 309.893 1021.254 L 308 1027.008 308 1028.500 L 308 1029.992 306.107 1035.746 L 304.213 1041.500 302.698 1047.500 L 301.182 1053.500 298.549 1063 L 295.917 1072.500 294.070 1079.500 L 292.224 1086.500 289.585 1096.366 L 286.946 1106.232 285.973 1108.050 L 285 1109.869 285 1113.466 L 285 1117.063 286.628 1117.688 L 288.256 1118.312 293.378 1117.084 L 298.500 1115.856 307.500 1113.468 L 316.500 1111.080 322.500 1109.497 L 328.500 1107.913 335 1106.458 L 341.500 1105.004 343.900 1103.955 L 346.299 1102.907 352.400 1101.554 L 358.500 1100.202 370.500 1097.014 L 382.500 1093.826 392 1091.345 L 401.500 1088.864 408.500 1087.019 L 415.500 1085.173 425.247 1082.575 L 434.994 1079.976 444.747 1077.400 L 454.500 1074.823 460.811 1073.414 L 467.122 1072.005 468.811 1071.115 L 470.500 1070.224 476.500 1069.013 L 482.500 1067.802 488.218 1065.901 L 493.937 1064 500.367 1064 L 506.797 1064 512.148 1066.784 L 517.500 1069.568 525 1072.966 L 532.500 1076.365 538 1078.722 L 543.500 1081.080 552 1084.420 L 560.500 1087.760 572.500 1091.785 L 584.500 1095.809 593.500 1098.316 L 602.500 1100.823 606.500 1101.495 L 610.500 1102.166 615 1103.527 L 619.500 1104.887 627.500 1105.990 L 635.500 1107.093 643 1108.529 L 650.500 1109.966 666 1111.037 L 681.500 1112.108 700 1112.102 L 718.500 1112.096 734.500 1111.017 L 750.500 1109.937 762.500 1107.950 L 774.500 1105.964 780 1104.974 L 785.500 1103.984 796 1101.573 L 806.500 1099.162 812.832 1097.542 L 819.164 1095.922 833.832 1091.001 L 848.500 1086.079 857 1082.468 L 865.500 1078.856 867 1078.288 L 868.500 1077.721 879 1072.862 L 889.500 1068.002 891 1067.056 L 892.500 1066.110 900.500 1061.960 L 908.500 1057.810 910.079 1056.405 L 911.657 1055 912.278 1055 L 912.899 1055 921.830 1049.250 L 930.762 1043.500 936.631 1039.530 L 942.500 1035.560 949 1030.616 L 955.500 1025.672 967 1016.110 L 978.500 1006.547 992.573 992.524 L 1006.646 978.500 1017.106 966 L 1027.566 953.500 1033.533 945.500 L 1039.500 937.500 1047.119 926 L 1054.738 914.500 1059.073 907 L 1063.407 899.500 1067.237 892.500 L 1071.066 885.500 1072.896 881.500 L 1074.725 877.500 1078.253 870 L 1081.780 862.500 1084.890 855.332 L 1088 848.165 1088 847.109 L 1088 846.054 1089.890 841.777 L 1091.780 837.500 1093.768 832 L 1095.755 826.500 1098.363 818 L 1100.971 809.500 1102.546 803.500 L 1104.122 797.500 1106.619 786.500 L 1109.117 775.500 1111.051 763.500 L 1112.985 751.500 1114.218 744 L 1115.451 736.500 1115.464 697 L 1115.476 657.500 1114.302 650.500 L 1113.128 643.500 1111.531 633 L 1109.934 622.500 1107.410 611 L 1104.886 599.500 1103.476 594.500 L 1102.065 589.500 1098.942 578.500 L 1095.818 567.500 1093.909 562.250 L 1092 557 1089.863 551.250 L 1087.726 545.500 1084.808 538.500 L 1081.890 531.500 1080.195 527.638 L 1078.500 523.775 1070.916 508.638 L 1063.332 493.500 1058.529 485.500 L 1053.726 477.500 1046.169 466 L 1038.612 454.500 1032.148 446 L 1025.684 437.500 1018.673 429 L 1011.662 420.500 994.581 403.456 L 977.500 386.412 972.137 381.956 L 966.773 377.500 965.637 376.500 L 964.500 375.500 957.500 369.980 L 950.500 364.461 944.730 360.480 L 938.961 356.500 932.230 351.745 L 925.500 346.989 918.181 342.745 L 910.861 338.500 906.181 335.779 L 901.500 333.059 886.500 325.620 L 871.500 318.182 866.500 316.019 L 861.500 313.856 853 310.541 L 844.500 307.226 832 303.143 L 819.500 299.060 810.500 296.591 L 801.500 294.123 795 292.557 L 788.500 290.991 776.615 288.971 L 764.730 286.951 763.975 286.485 L 763.221 286.018 747.360 284.506 L 731.500 282.993 721.500 282.022 L 711.500 281.052 699 281.166 L 686.500 281.280 679 282.027 M 662.500 353.570 L 647.500 354.884 641.500 355.954 L 635.500 357.024 626 358.911 L 616.500 360.798 608.533 362.914 L 600.565 365.029 593.033 367.577 L 585.500 370.125 580 372.169 L 574.500 374.213 571.500 375.503 L 568.500 376.792 561.813 379.896 L 555.126 383 554.558 383 L 553.990 383 541.245 390.132 L 528.500 397.263 517.500 404.709 L 506.500 412.154 503 414.630 L 499.500 417.106 489 425.766 L 478.500 434.427 463.910 448.963 L 449.320 463.500 438.670 476.289 L 428.021 489.079 422.624 496.376 L 417.228 503.672 411.482 512.586 L 405.737 521.500 403.849 524.236 L 401.961 526.971 400.911 529.236 L 399.861 531.500 397.029 536.500 L 394.197 541.500 391.011 548 L 387.824 554.500 385.412 559.342 L 383 564.185 383 565.277 L 383 566.369 381.058 570.434 L 379.115 574.500 377.479 579 L 375.843 583.500 373.332 591 L 370.822 598.500 368.436 607.500 L 366.049 616.500 363.067 631 L 360.084 645.500 358.542 662.629 L 357 679.757 357 695 L 357 710.243 358.516 727.371 L 360.031 744.500 361.941 754 L 363.851 763.500 364.869 768.500 L 365.888 773.500 368.387 783 L 370.886 792.500 372.897 799 L 374.908 805.500 377.569 812.500 L 380.230 819.500 381.890 824 L 383.550 828.500 385.863 833.500 L 388.175 838.500 390.701 844 L 393.227 849.500 395.837 854.500 L 398.447 859.500 400.974 864.156 L 403.500 868.812 409.375 879.027 L 415.250 889.241 415.743 895.386 L 416.236 901.530 414.484 908.015 L 412.731 914.500 410.755 921.500 L 408.779 928.500 406.417 937 L 404.055 945.500 401.659 954 L 399.263 962.500 396.519 972.500 L 393.776 982.500 391.948 989.500 L 390.119 996.500 387.538 1005.943 L 384.957 1015.386 386.483 1016.912 L 388.009 1018.438 395.254 1016.787 L 402.500 1015.137 410.500 1013.213 L 418.500 1011.288 424 1009.715 L 429.500 1008.142 440 1005.452 L 450.500 1002.762 457 1000.979 L 463.500 999.197 469.500 997.703 L 475.500 996.210 485.500 993.508 L 495.500 990.807 501.500 989.310 L 507.500 987.813 512.884 988.431 L 518.267 989.049 531.384 996.422 L 544.500 1003.795 553 1007.838 L 561.500 1011.882 565.500 1013.554 L 569.500 1015.227 575.500 1017.677 L 581.500 1020.128 590 1022.949 L 598.500 1025.770 607.500 1028.316 L 616.500 1030.862 625.500 1032.902 L 634.500 1034.941 638 1035.468 L 641.500 1035.994 654 1037.978 L 666.500 1039.961 689.109 1040.989 L 711.717 1042.016 726.609 1040.965 L 741.500 1039.914 756 1037.458 L 770.500 1035.002 779.500 1032.896 L 788.500 1030.791 797 1028.283 L 805.500 1025.775 813 1023.356 L 820.500 1020.936 823.154 1019.468 L 825.809 1018 827.051 1018 L 828.294 1018 840.397 1012.541 L 852.500 1007.082 858 1004.174 L 863.500 1001.266 868 998.801 L 872.500 996.337 876.500 994.057 L 880.500 991.778 890.500 985.159 L 900.500 978.541 909.421 971.782 L 918.343 965.023 927.921 956.597 L 937.500 948.171 947.524 937.836 L 957.547 927.500 962.024 922.168 L 966.500 916.836 968.500 914.547 L 970.500 912.259 972 910.360 L 973.500 908.460 976.500 904.482 L 979.500 900.503 983.304 895.002 L 987.107 889.500 990.688 884 L 994.269 878.500 996.154 875.764 L 998.039 873.029 999.089 870.764 L 1000.139 868.500 1003.016 863.500 L 1005.893 858.500 1009.537 851 L 1013.181 843.500 1015.667 838 L 1018.154 832.500 1019.518 829.500 L 1020.883 826.500 1023.378 820 L 1025.872 813.500 1028.036 807 L 1030.200 800.500 1032.510 792.500 L 1034.820 784.500 1037.408 773.500 L 1039.995 762.500 1040.937 756 L 1041.878 749.500 1043.585 739 L 1045.291 728.500 1045.277 699 L 1045.263 669.500 1044.193 663 L 1043.122 656.500 1041.548 646 L 1039.974 635.500 1037.879 626.500 L 1035.784 617.500 1033.363 608.500 L 1030.943 599.500 1028.338 591 L 1025.733 582.500 1023.383 576.244 L 1021.032 569.987 1018.457 563.244 L 1015.883 556.500 1014.506 553.500 L 1013.129 550.500 1007.918 539.500 L 1002.707 528.500 998.250 520.500 L 993.794 512.500 991.561 509 L 989.328 505.500 984.418 498 L 979.509 490.500 975.042 484.500 L 970.576 478.500 963.878 470.500 L 957.180 462.500 949.158 454.207 L 941.136 445.914 932.818 438.371 L 924.500 430.828 915.500 424.079 L 906.500 417.329 898 411.841 L 889.500 406.352 886.500 404.426 L 883.500 402.500 879.500 400.318 L 875.500 398.135 864 392.507 L 852.500 386.879 849.542 385.367 L 846.584 383.854 837.853 380.442 L 829.121 377.031 818.311 373.410 L 807.500 369.790 800.500 367.859 L 793.500 365.928 785 363.946 L 776.500 361.965 769.500 360.539 L 762.500 359.113 751 357.085 L 739.500 355.057 719.955 353.529 L 700.410 352 688.955 352.128 L 677.500 352.256 662.500 353.570 M 554.500 504.996 L 550.500 505.841 543.636 507.889 L 536.772 509.937 533.142 512.705 L 529.513 515.473 525.150 519.987 L 520.787 524.500 515.046 531.500 L 509.306 538.500 504.911 546.500 L 500.516 554.500 498.217 560 L 495.918 565.500 493.278 576.500 L 490.637 587.500 490.616 602 L 490.595 616.500 492.853 627.500 L 495.111 638.500 497.613 646 L 500.116 653.500 502.671 660 L 505.226 666.500 506.547 669 L 507.868 671.500 513.510 681.785 L 519.152 692.070 523.551 698.785 L 527.950 705.500 530.015 708.500 L 532.080 711.500 538.984 721 L 545.888 730.500 549.694 735.344 L 553.500 740.189 555.505 742.959 L 557.510 745.729 562.505 751.549 L 567.500 757.369 574.461 765.434 L 581.423 773.500 594.961 787.072 L 608.500 800.643 615.938 807.072 L 623.376 813.500 625.028 815 L 626.679 816.500 629.590 818.761 L 632.500 821.022 638 825.303 L 643.500 829.584 650.500 834.551 L 657.500 839.518 661.500 842.099 L 665.500 844.680 668.500 846.589 L 671.500 848.498 678.500 852.652 L 685.500 856.806 700.500 864.327 L 715.500 871.848 722.500 874.787 L 729.500 877.726 735.250 879.863 L 741 882 746.250 883.878 L 751.500 885.755 760 888.355 L 768.500 890.954 777 893.058 L 785.500 895.163 801.500 896.035 L 817.500 896.907 826 896.008 L 834.500 895.109 841 892.949 L 847.500 890.789 853.657 888.400 L 859.814 886.011 865.157 883.330 L 870.500 880.650 877 876.187 L 883.500 871.724 887.855 867.612 L 892.211 863.500 895.909 858.500 L 899.606 853.500 901.896 849.732 L 904.186 845.963 906.168 840.732 L 908.150 835.500 909.052 832.586 L 909.955 829.671 911.094 816.787 L 912.233 803.904 911.009 799.533 L 909.786 795.162 905.946 792.077 L 902.106 788.991 899.803 787.998 L 897.500 787.005 896 786.039 L 894.500 785.074 882.500 779.413 L 870.500 773.752 862.500 769.990 L 854.500 766.227 847 762.721 L 839.500 759.215 832 755.703 L 824.500 752.192 818.280 749.596 L 812.060 747 809.226 747 L 806.392 747 801.946 749.900 L 797.500 752.800 795.742 755.150 L 793.985 757.500 778.070 777.106 L 762.155 796.711 758.520 798.856 L 754.886 801 751.814 801 L 748.742 801 741.920 798.539 L 735.099 796.079 733.299 795.108 L 731.500 794.137 724.500 790.904 L 717.500 787.670 709.500 783.198 L 701.500 778.726 691.007 771.737 L 680.515 764.747 673.007 759.131 L 665.500 753.515 651.627 740.007 L 637.754 726.500 629.627 716.593 L 621.500 706.686 614.765 697.093 L 608.030 687.500 603.522 679.412 L 599.015 671.324 598.462 668.412 L 597.910 665.500 600.205 661.346 L 602.500 657.192 608.900 650.077 L 615.301 642.963 619.633 637.383 L 623.965 631.804 626.880 626.652 L 629.795 621.500 631.559 615.815 L 633.324 610.130 631.215 603.815 L 629.107 597.500 625.478 589 L 621.849 580.500 620.411 576.586 L 618.973 572.673 618.117 571.586 L 617.261 570.500 615.983 566.500 L 614.706 562.500 612.853 559.015 L 611 555.530 611 554.624 L 611 553.719 609.127 549.610 L 607.254 545.500 604.721 539.500 L 602.188 533.500 599.594 527.375 L 597 521.250 597 520.463 L 597 519.675 593.931 514.892 L 590.861 510.109 586.181 507.326 L 581.500 504.543 570 504.347 L 558.500 504.152 554.500 504.996 M 0.470 700 L 0.470 760.500 0.749 730.250 L 1.029 700 0.749 669.750 L 0.470 639.500 0.470 700" stroke="none" fill="#04a40c" fill-rule="evenodd"/></svg>