<svg xmlns="http://www.w3.org/2000/svg" width="512" height="512" viewBox="0 0 512 512" version="1.1"><path d="M 323 174.578 L 285.500 189.084 265 196.986 L 244.500 204.889 221 213.981 L 197.500 223.074 161 237.109 L 124.500 251.144 120.268 253.603 L 116.037 256.063 115.018 257.966 L 114 259.869 114 262.366 L 114 264.864 116.750 266.822 L 119.500 268.779 145.500 276.846 L 171.500 284.913 177 286.799 L 182.500 288.685 188.742 309.093 L 194.983 329.500 199.602 345 L 204.222 360.500 205.634 362.750 L 207.046 365 210.958 365 L 214.870 365 217.189 364.118 L 219.509 363.236 235.353 347.868 L 251.198 332.500 251.916 332.228 L 252.633 331.956 261.248 338.228 L 269.862 344.500 291.769 360.713 L 313.677 376.927 316.403 377.963 L 319.130 379 322.430 379 L 325.730 379 328.371 376.922 L 331.013 374.845 332.142 372.735 L 333.271 370.626 337.684 350.063 L 342.097 329.500 350.490 290 L 358.883 250.500 362.993 231 L 367.103 211.500 371.161 192.738 L 375.218 173.976 374.530 170.309 L 373.842 166.642 370.521 163.321 L 367.200 160 363.850 160.036 L 360.500 160.072 323 174.578" stroke="none" fill="#e8f1f8" fill-rule="evenodd"/><path d="M 232.922 15.411 L 232.384 15.949 221.942 17.419 L 211.500 18.890 198 22.388 L 184.500 25.886 174 29.524 L 163.500 33.162 148.500 40.676 L 133.500 48.189 123 55.246 L 112.500 62.303 103.500 69.599 L 94.500 76.896 84.407 87.198 L 74.315 97.500 68.293 105 L 62.272 112.500 55.231 123 L 48.189 133.500 40.666 148.500 L 33.142 163.500 29.154 175.500 L 25.165 187.500 23.634 192.532 L 22.102 197.564 20.095 207.032 L 18.089 216.500 16.800 224.500 L 15.511 232.500 15.506 255.500 L 15.500 278.500 17.261 289.500 L 19.022 300.500 21.472 310.340 L 23.922 320.180 28.059 333.067 L 32.197 345.955 39.545 360.960 L 46.893 375.965 55.393 388.732 L 63.892 401.500 73.879 413.157 L 83.866 424.813 94.183 433.999 L 104.500 443.184 114.500 450.466 L 124.500 457.747 136.810 464.797 L 149.120 471.847 159.810 476.327 L 170.500 480.806 180.592 484.314 L 190.684 487.823 200.092 489.854 L 209.500 491.886 223.798 493.943 L 238.096 496 256 496 L 273.904 496 288.202 493.962 L 302.500 491.925 313 489.429 L 323.500 486.933 331 484.352 L 338.500 481.772 349.500 477.321 L 360.500 472.869 374 465.195 L 387.500 457.520 401 447.366 L 414.500 437.211 426.281 425.344 L 438.062 413.476 447.789 400.488 L 457.516 387.500 465.193 374 L 472.869 360.500 477.321 349.500 L 481.772 338.500 484.330 331 L 486.887 323.500 489.004 315.097 L 491.121 306.695 493.545 290.597 L 495.970 274.500 495.985 256.298 L 496 238.096 493.943 223.798 L 491.886 209.500 489.854 200.092 L 487.823 190.684 484.314 180.592 L 480.806 170.500 476.327 159.810 L 471.847 149.120 464.797 136.810 L 457.747 124.500 450.466 114.500 L 443.184 104.500 433.999 94.183 L 424.813 83.866 413.157 73.879 L 401.500 63.892 388.732 55.393 L 375.965 46.893 360.960 39.545 L 345.955 32.197 333.032 28.048 L 320.109 23.899 310.133 21.437 L 300.157 18.975 290.328 17.311 L 280.500 15.647 256.980 15.260 L 233.460 14.873 232.922 15.411 M 323 174.578 L 285.500 189.084 265 196.986 L 244.500 204.889 221 213.981 L 197.500 223.074 161 237.109 L 124.500 251.144 120.268 253.603 L 116.037 256.063 115.018 257.966 L 114 259.869 114 262.366 L 114 264.864 116.750 266.822 L 119.500 268.779 145.500 276.846 L 171.500 284.913 177 286.799 L 182.500 288.685 188.742 309.093 L 194.983 329.500 199.602 345 L 204.222 360.500 205.634 362.750 L 207.046 365 210.958 365 L 214.870 365 217.189 364.118 L 219.509 363.236 235.353 347.868 L 251.198 332.500 251.916 332.228 L 252.633 331.956 261.248 338.228 L 269.862 344.500 291.769 360.713 L 313.677 376.927 316.403 377.963 L 319.130 379 322.430 379 L 325.730 379 328.371 376.922 L 331.013 374.845 332.142 372.735 L 333.271 370.626 337.684 350.063 L 342.097 329.500 350.490 290 L 358.883 250.500 362.993 231 L 367.103 211.500 371.161 192.738 L 375.218 173.976 374.530 170.309 L 373.842 166.642 370.521 163.321 L 367.200 160 363.850 160.036 L 360.500 160.072 323 174.578" stroke="none" fill="#28a0d5" fill-rule="evenodd"/></svg>