<svg xmlns="http://www.w3.org/2000/svg" width="512" height="512" viewBox="0 0 512 512" version="1.1"><path d="M 228 51.623 L 217.500 53.040 205.864 55.961 L 194.227 58.882 184.364 62.568 L 174.500 66.253 163.500 71.745 L 152.500 77.236 144 82.745 L 135.500 88.253 127 95.023 L 118.500 101.793 107.946 112.647 L 97.391 123.500 91.774 131 L 86.158 138.500 80.608 147.356 L 75.058 156.212 70.118 166.356 L 65.177 176.500 61.222 188 L 57.267 199.500 55.116 208.696 L 52.966 217.893 51.501 228.196 L 50.037 238.500 50.018 255.526 L 50 272.552 51.053 281.026 L 52.106 289.500 53.621 297 L 55.137 304.500 58.115 314.810 L 61.094 325.121 66 336.699 L 70.907 348.276 76.995 358.888 L 83.084 369.500 88.898 377.302 L 94.712 385.104 102.045 393.552 L 109.378 402 109.952 402 L 110.526 402 124.911 387.589 L 139.296 373.179 131.756 364.339 L 124.216 355.500 118.515 347 L 112.813 338.500 107.519 327.500 L 102.225 316.500 99.634 308.500 L 97.043 300.500 95.074 292 L 93.106 283.500 92.053 273.789 L 91 264.079 91.008 255.789 L 91.016 247.500 92.043 238.541 L 93.069 229.581 94.603 222.041 L 96.136 214.500 99.574 204.148 L 103.013 193.797 107.476 184.498 L 111.939 175.198 119.147 164.419 L 126.355 153.639 136.927 142.692 L 147.500 131.745 157.883 123.946 L 168.265 116.147 180.078 110.042 L 191.890 103.936 204.114 99.922 L 216.338 95.908 227.919 93.914 L 239.500 91.920 254.500 91.873 L 269.500 91.825 277.929 92.985 L 286.359 94.144 297.565 96.975 L 308.771 99.805 319.636 104.397 L 330.500 108.989 338.939 114.016 L 347.378 119.042 354.795 124.625 L 362.212 130.207 369.741 137.354 L 377.271 144.500 382.995 151.500 L 388.719 158.500 394.424 167.252 L 400.129 176.005 404.505 185.252 L 408.880 194.500 411.971 203.741 L 415.063 212.983 417.037 222.434 L 419.010 231.885 419.995 243.942 L 420.980 256 419.994 268.075 L 419.007 280.150 417.006 289.973 L 415.004 299.796 411.432 310.057 L 407.860 320.318 403.429 329.142 L 398.997 337.965 395.345 343.733 L 391.692 349.500 385.454 357.500 L 379.216 365.500 376.108 368.437 L 373 371.374 373 372.450 L 373 373.526 387.326 387.826 L 401.652 402.127 407.967 395.376 L 414.282 388.626 421.001 379.563 L 427.721 370.500 432.027 363.500 L 436.333 356.500 442.043 344.500 L 447.752 332.500 450.806 323.500 L 453.859 314.500 455.886 306.500 L 457.913 298.500 459.509 289 L 461.105 279.500 461.694 263.452 L 462.283 247.405 461.084 235.952 L 459.886 224.500 457.408 212.760 L 454.930 201.020 450.929 189.417 L 446.929 177.815 442.537 168.416 L 438.144 159.017 432.945 150.408 L 427.745 141.800 420.548 132.150 L 413.351 122.500 405.538 114.214 L 397.725 105.929 388.846 98.479 L 379.967 91.030 370.959 84.973 L 361.952 78.916 351.726 73.510 L 341.500 68.103 331.086 63.981 L 320.673 59.858 307.362 56.447 L 294.051 53.035 282.474 51.518 L 270.898 50 254.699 50.103 L 238.500 50.206 228 51.623 M 273.012 209.493 L 215.523 259.930 215.259 260.723 L 214.995 261.516 232.989 279.489 L 250.983 297.462 252.863 295.481 L 254.743 293.500 303.872 237.259 L 353 181.017 353 180.276 L 353 179.534 342.768 169.267 L 332.536 159 331.518 159.028 L 330.500 159.056 273.012 209.493" stroke="none" fill="#fafafa" fill-rule="evenodd"/><path d="M 238 1.041 L 226.500 1.918 216.500 3.488 L 206.500 5.057 194.057 8.114 L 181.614 11.170 171.057 14.954 L 160.500 18.738 151 23.022 L 141.500 27.307 132.541 32.268 L 123.582 37.229 114.541 43.261 L 105.500 49.292 96 56.834 L 86.500 64.376 75.438 75.438 L 64.376 86.500 56.834 96 L 49.292 105.500 43.261 114.541 L 37.229 123.582 32.255 132.541 L 27.281 141.500 22.153 153.058 L 17.026 164.616 13.112 176.558 L 9.198 188.500 6.634 200 L 4.069 211.500 2.412 224.500 L 0.755 237.500 0.755 256 L 0.755 274.500 2.412 287.500 L 4.069 300.500 6.634 312 L 9.198 323.500 13.112 335.442 L 17.026 347.384 22.153 358.942 L 27.281 370.500 32.255 379.459 L 37.229 388.418 43.261 397.459 L 49.292 406.500 56.834 416 L 64.376 425.500 75.438 436.576 L 86.500 447.653 96.507 455.576 L 106.515 463.500 117.695 470.773 L 128.876 478.047 141.688 484.411 L 154.500 490.774 163.628 494.341 L 172.755 497.908 182.782 500.887 L 192.809 503.866 205.155 506.382 L 217.500 508.898 228 510.084 L 238.500 511.271 256 511.271 L 273.500 511.271 284 510.084 L 294.500 508.898 306.845 506.382 L 319.191 503.866 329.218 500.887 L 339.245 497.908 348.372 494.341 L 357.500 490.774 370.312 484.411 L 383.124 478.047 394.305 470.773 L 405.485 463.500 415.493 455.576 L 425.500 447.653 436.576 436.576 L 447.653 425.500 455.576 415.493 L 463.500 405.485 470.773 394.305 L 478.047 383.124 484.411 370.312 L 490.774 357.500 494.465 348.061 L 498.155 338.621 501.533 326.885 L 504.911 315.149 506.949 304.324 L 508.987 293.500 509.985 284.500 L 510.984 275.500 510.992 269.309 L 511 263.118 512 262.500 L 513 261.882 513 254.882 L 513 247.882 512 248.500 L 511 249.118 511 243.020 L 511 236.921 509.946 227.211 L 508.893 217.500 506.379 205.155 L 503.866 192.809 500.887 182.782 L 497.908 172.755 494.341 163.628 L 490.774 154.500 484.411 141.688 L 478.047 128.876 470.773 117.695 L 463.500 106.515 455.576 96.507 L 447.653 86.500 436.576 75.424 L 425.500 64.347 415.493 56.424 L 405.485 48.500 394.305 41.227 L 383.124 33.953 370.312 27.589 L 357.500 21.226 348.372 17.659 L 339.245 14.092 329.218 11.113 L 319.191 8.134 306.845 5.618 L 294.500 3.102 284.500 2.085 L 274.500 1.069 262 0.617 L 249.500 0.165 238 1.041 M 228 51.623 L 217.500 53.040 205.864 55.961 L 194.227 58.882 184.364 62.568 L 174.500 66.253 163.500 71.745 L 152.500 77.236 144 82.745 L 135.500 88.253 127 95.023 L 118.500 101.793 107.946 112.647 L 97.391 123.500 91.774 131 L 86.158 138.500 80.608 147.356 L 75.058 156.212 70.118 166.356 L 65.177 176.500 61.222 188 L 57.267 199.500 55.116 208.696 L 52.966 217.893 51.501 228.196 L 50.037 238.500 50.018 255.526 L 50 272.552 51.053 281.026 L 52.106 289.500 53.621 297 L 55.137 304.500 58.115 314.810 L 61.094 325.121 66 336.699 L 70.907 348.276 76.995 358.888 L 83.084 369.500 88.898 377.302 L 94.712 385.104 102.045 393.552 L 109.378 402 109.952 402 L 110.526 402 124.911 387.589 L 139.296 373.179 131.756 364.339 L 124.216 355.500 118.515 347 L 112.813 338.500 107.519 327.500 L 102.225 316.500 99.634 308.500 L 97.043 300.500 95.074 292 L 93.106 283.500 92.053 273.789 L 91 264.079 91.008 255.789 L 91.016 247.500 92.043 238.541 L 93.069 229.581 94.603 222.041 L 96.136 214.500 99.574 204.148 L 103.013 193.797 107.476 184.498 L 111.939 175.198 119.147 164.419 L 126.355 153.639 136.927 142.692 L 147.500 131.745 157.883 123.946 L 168.265 116.147 180.078 110.042 L 191.890 103.936 204.114 99.922 L 216.338 95.908 227.919 93.914 L 239.500 91.920 254.500 91.873 L 269.500 91.825 277.929 92.985 L 286.359 94.144 297.565 96.975 L 308.771 99.805 319.636 104.397 L 330.500 108.989 338.939 114.016 L 347.378 119.042 354.795 124.625 L 362.212 130.207 369.741 137.354 L 377.271 144.500 382.995 151.500 L 388.719 158.500 394.424 167.252 L 400.129 176.005 404.505 185.252 L 408.880 194.500 411.971 203.741 L 415.063 212.983 417.037 222.434 L 419.010 231.885 419.995 243.942 L 420.980 256 419.994 268.075 L 419.007 280.150 417.006 289.973 L 415.004 299.796 411.432 310.057 L 407.860 320.318 403.429 329.142 L 398.997 337.965 395.345 343.733 L 391.692 349.500 385.454 357.500 L 379.216 365.500 376.108 368.437 L 373 371.374 373 372.450 L 373 373.526 387.326 387.826 L 401.652 402.127 407.967 395.376 L 414.282 388.626 421.001 379.563 L 427.721 370.500 432.027 363.500 L 436.333 356.500 442.043 344.500 L 447.752 332.500 450.806 323.500 L 453.859 314.500 455.886 306.500 L 457.913 298.500 459.509 289 L 461.105 279.500 461.694 263.452 L 462.283 247.405 461.084 235.952 L 459.886 224.500 457.408 212.760 L 454.930 201.020 450.929 189.417 L 446.929 177.815 442.537 168.416 L 438.144 159.017 432.945 150.408 L 427.745 141.800 420.548 132.150 L 413.351 122.500 405.538 114.214 L 397.725 105.929 388.846 98.479 L 379.967 91.030 370.959 84.973 L 361.952 78.916 351.726 73.510 L 341.500 68.103 331.086 63.981 L 320.673 59.858 307.362 56.447 L 294.051 53.035 282.474 51.518 L 270.898 50 254.699 50.103 L 238.500 50.206 228 51.623 M 273.012 209.493 L 215.523 259.930 215.259 260.723 L 214.995 261.516 232.989 279.489 L 250.983 297.462 252.863 295.481 L 254.743 293.500 303.872 237.259 L 353 181.017 353 180.276 L 353 179.534 342.768 169.267 L 332.536 159 331.518 159.028 L 330.500 159.056 273.012 209.493 M 0.336 256 L 0.336 263.500 0.728 259.750 L 1.121 256 0.728 252.250 L 0.336 248.500 0.336 256" stroke="none" fill="#0c0c1c" fill-rule="evenodd"/></svg>