<svg xmlns="http://www.w3.org/2000/svg" width="1000" height="1000" viewBox="0 0 1000 1000" version="1.1"><path d="M 459 1.095 L 449.500 1.916 436.500 3.532 L 423.500 5.149 410 7.584 L 396.500 10.018 378.012 14.600 L 359.523 19.181 343.512 24.489 L 327.500 29.797 315 34.793 L 302.500 39.788 289.333 45.883 L 276.167 51.977 263.833 58.625 L 251.500 65.273 241.500 71.294 L 231.500 77.314 222.500 83.319 L 213.500 89.324 202.500 97.474 L 191.500 105.624 179 115.968 L 166.500 126.312 146.406 146.406 L 126.312 166.500 115.968 179 L 105.624 191.500 97.474 202.500 L 89.324 213.500 83.319 222.500 L 77.314 231.500 71.294 241.500 L 65.273 251.500 58.625 263.833 L 51.977 276.167 45.883 289.333 L 39.788 302.500 34.793 315 L 29.797 327.500 24.495 343.500 L 19.192 359.500 14.702 377.500 L 10.211 395.500 7.617 410 L 5.023 424.500 3.534 436.500 L 2.045 448.500 1.033 460.500 L 0.021 472.500 0.021 500 L 0.021 527.500 1.033 539.500 L 2.045 551.500 3.534 563.500 L 5.023 575.500 7.617 590 L 10.211 604.500 14.702 622.500 L 19.192 640.500 24.495 656.500 L 29.797 672.500 34.793 685 L 39.788 697.500 45.883 710.667 L 51.977 723.833 58.625 736.167 L 65.273 748.500 71.294 758.500 L 77.314 768.500 83.319 777.500 L 89.324 786.500 97.474 797.500 L 105.624 808.500 115.968 821 L 126.312 833.500 146.406 853.594 L 166.500 873.688 179 884.032 L 191.500 894.376 202.500 902.526 L 213.500 910.676 222.500 916.681 L 231.500 922.686 241.500 928.706 L 251.500 934.727 263.833 941.375 L 276.167 948.023 289.333 954.117 L 302.500 960.212 315 965.207 L 327.500 970.203 343.500 975.505 L 359.500 980.808 377.500 985.298 L 395.500 989.789 410 992.383 L 424.500 994.977 436.500 996.466 L 448.500 997.955 460.500 998.967 L 472.500 999.979 500 999.979 L 527.500 999.979 539.500 998.965 L 551.500 997.950 564 996.397 L 576.500 994.844 590 992.398 L 603.500 989.953 618 986.445 L 632.500 982.937 645.986 978.877 L 659.471 974.817 672.978 969.786 L 686.484 964.755 696.992 960.279 L 707.500 955.804 723 948.078 L 738.500 940.352 749.500 934.026 L 760.500 927.701 773.500 919.222 L 786.500 910.742 797.500 902.559 L 808.500 894.376 821 884.032 L 833.500 873.688 853.594 853.594 L 873.688 833.500 884.032 821 L 894.376 808.500 902.559 797.500 L 910.742 786.500 919.222 773.500 L 927.701 760.500 933.857 749.792 L 940.013 739.083 947.905 723.292 L 955.798 707.500 960.276 696.992 L 964.755 686.484 969.786 672.978 L 974.817 659.471 978.875 645.986 L 982.933 632.500 986.347 618.500 L 989.761 604.500 992.367 590 L 994.973 575.500 996.483 563.724 L 997.993 551.948 998.649 541.939 L 999.305 531.929 1000.153 531.406 L 1001 530.882 1001 498.882 L 1001 466.882 1000.148 467.408 L 999.296 467.935 998.645 457.993 L 997.993 448.052 996.483 436.276 L 994.973 424.500 992.381 410 L 989.789 395.500 985.298 377.500 L 980.808 359.500 975.505 343.500 L 970.203 327.500 965.207 315 L 960.212 302.500 954.117 289.333 L 948.023 276.167 941.375 263.833 L 934.727 251.500 928.706 241.500 L 922.686 231.500 916.681 222.500 L 910.676 213.500 902.526 202.500 L 894.376 191.500 884.032 179 L 873.688 166.500 853.594 146.406 L 833.500 126.312 821 115.968 L 808.500 105.624 797.500 97.474 L 786.500 89.324 777.500 83.319 L 768.500 77.314 758.500 71.294 L 748.500 65.273 736.167 58.625 L 723.833 51.977 710.667 45.883 L 697.500 39.788 685 34.793 L 672.500 29.797 656.500 24.495 L 640.500 19.192 622.500 14.702 L 604.500 10.211 590 7.617 L 575.500 5.023 563.500 3.534 L 551.500 2.045 539.500 1.033 L 527.500 0.021 498 0.148 L 468.500 0.275 459 1.095 M 401.500 251.079 L 372.500 251.840 347 252.970 L 321.500 254.100 300 255.552 L 278.500 257.004 264 258.543 L 249.500 260.083 239.500 261.618 L 229.500 263.153 221.500 265.127 L 213.500 267.102 203.500 271.994 L 193.500 276.886 186.070 283.193 L 178.640 289.500 173.265 296.500 L 167.890 303.500 164.024 311.500 L 160.157 319.500 158.123 326.500 L 156.089 333.500 153.599 346 L 151.108 358.500 149.074 375 L 147.041 391.500 145.518 411.500 L 143.995 431.500 143 455 L 142.005 478.500 142.005 500 L 142.005 521.500 143 545 L 143.995 568.500 145.518 588.500 L 147.041 608.500 149.074 625 L 151.108 641.500 153.583 654 L 156.058 666.500 159.016 676 L 161.975 685.500 165.893 692.500 L 169.812 699.500 175.656 706.429 L 181.500 713.357 188.500 718.686 L 195.500 724.015 202 727.406 L 208.500 730.797 216.879 733.423 L 225.259 736.049 237.379 737.988 L 249.500 739.927 263.500 741.423 L 277.500 742.918 300 744.427 L 322.500 745.937 346 746.978 L 369.500 748.020 407.500 749 L 445.500 749.980 500.500 749.983 L 555.500 749.985 592.500 749.002 L 629.500 748.019 653.500 746.982 L 677.500 745.945 700 744.431 L 722.500 742.918 736.500 741.416 L 750.500 739.914 760.500 738.392 L 770.500 736.871 778.500 734.835 L 786.500 732.800 796.500 727.957 L 806.500 723.114 813.930 716.807 L 821.360 710.500 826.644 703.557 L 831.927 696.614 834.947 690.948 L 837.966 685.283 840.937 676.192 L 843.908 667.100 846.388 654.300 L 848.868 641.500 850.913 625 L 852.959 608.500 854.482 588.500 L 856.005 568.500 857 545 L 857.995 521.500 857.995 500 L 857.995 478.500 857 455 L 856.005 431.500 854.482 411.500 L 852.959 391.500 850.913 375 L 848.868 358.500 846.446 346 L 844.025 333.500 841.022 324 L 838.019 314.500 834.104 307.500 L 830.188 300.500 824.344 293.571 L 818.500 286.643 811.500 281.314 L 804.500 275.985 798 272.594 L 791.500 269.203 783.121 266.577 L 774.741 263.951 762.621 262.012 L 750.500 260.073 736.500 258.577 L 722.500 257.082 700 255.573 L 677.500 254.063 654 253.024 L 630.500 251.985 593 251.001 L 555.500 250.016 493 250.167 L 430.500 250.318 401.500 251.079 M 428 500 L 428 608.165 432.879 605.333 L 437.759 602.500 525.844 551.500 L 613.929 500.500 613.928 500 L 613.928 499.500 525.840 448.500 L 437.753 397.500 432.876 394.667 L 428 391.835 428 500 M 0.447 500 L 0.447 532.500 0.748 516.250 L 1.050 500 0.748 483.750 L 0.447 467.500 0.447 500" stroke="none" fill="#fc0404" fill-rule="evenodd"/><path d="M 401.500 251.079 L 372.500 251.840 347 252.970 L 321.500 254.100 300 255.552 L 278.500 257.004 264 258.543 L 249.500 260.083 239.500 261.618 L 229.500 263.153 221.500 265.127 L 213.500 267.102 203.500 271.994 L 193.500 276.886 186.070 283.193 L 178.640 289.500 173.265 296.500 L 167.890 303.500 164.024 311.500 L 160.157 319.500 158.123 326.500 L 156.089 333.500 153.599 346 L 151.108 358.500 149.074 375 L 147.041 391.500 145.518 411.500 L 143.995 431.500 143 455 L 142.005 478.500 142.005 500 L 142.005 521.500 143 545 L 143.995 568.500 145.518 588.500 L 147.041 608.500 149.074 625 L 151.108 641.500 153.583 654 L 156.058 666.500 159.016 676 L 161.975 685.500 165.893 692.500 L 169.812 699.500 175.656 706.429 L 181.500 713.357 188.500 718.686 L 195.500 724.015 202 727.406 L 208.500 730.797 216.879 733.423 L 225.259 736.049 237.379 737.988 L 249.500 739.927 263.500 741.423 L 277.500 742.918 300 744.427 L 322.500 745.937 346 746.978 L 369.500 748.020 407.500 749 L 445.500 749.980 500.500 749.983 L 555.500 749.985 592.500 749.002 L 629.500 748.019 653.500 746.982 L 677.500 745.945 700 744.431 L 722.500 742.918 736.500 741.416 L 750.500 739.914 760.500 738.392 L 770.500 736.871 778.500 734.835 L 786.500 732.800 796.500 727.957 L 806.500 723.114 813.930 716.807 L 821.360 710.500 826.644 703.557 L 831.927 696.614 834.947 690.948 L 837.966 685.283 840.937 676.192 L 843.908 667.100 846.388 654.300 L 848.868 641.500 850.913 625 L 852.959 608.500 854.482 588.500 L 856.005 568.500 857 545 L 857.995 521.500 857.995 500 L 857.995 478.500 857 455 L 856.005 431.500 854.482 411.500 L 852.959 391.500 850.913 375 L 848.868 358.500 846.446 346 L 844.025 333.500 841.022 324 L 838.019 314.500 834.104 307.500 L 830.188 300.500 824.344 293.571 L 818.500 286.643 811.500 281.314 L 804.500 275.985 798 272.594 L 791.500 269.203 783.121 266.577 L 774.741 263.951 762.621 262.012 L 750.500 260.073 736.500 258.577 L 722.500 257.082 700 255.573 L 677.500 254.063 654 253.024 L 630.500 251.985 593 251.001 L 555.500 250.016 493 250.167 L 430.500 250.318 401.500 251.079 M 428 500 L 428 608.165 432.879 605.333 L 437.759 602.500 525.844 551.500 L 613.929 500.500 613.928 500 L 613.928 499.500 525.840 448.500 L 437.753 397.500 432.876 394.667 L 428 391.835 428 500" stroke="none" fill="#fcfbfb" fill-rule="evenodd"/></svg>